<svg version="1.0" xmlns="http://www.w3.org/2000/svg"
 width="538.000000pt" height="464.000000pt" viewBox="0 0 538.000000 464.000000"
 preserveAspectRatio="xMidYMid meet">

<g transform="translate(0.000000,464.000000) scale(0.100000,-0.100000)"
fill="#000000" stroke="none">
<path d="M2485 4112 c-2 -2 -47 -10 -101 -17 -157 -23 -195 -31 -294 -66 -114
-39 -263 -108 -234 -109 11 0 24 4 30 8 12 11 176 76 239 95 130 40 311 69
420 68 210 0 427 -20 445 -40 3 -3 10 -7 15 -7 6 -1 44 -12 85 -25 41 -12 79
-22 84 -20 4 1 13 -2 20 -8 6 -5 47 -24 91 -42 344 -142 663 -440 839 -784 31
-60 61 -116 67 -123 6 -7 8 -19 5 -27 -2 -7 2 -19 10 -25 8 -7 14 -21 14 -31
0 -10 5 -21 10 -24 8 -5 8 -11 0 -20 -8 -9 -6 -14 5 -19 11 -4 14 -13 10 -26
-4 -13 -1 -22 9 -26 27 -10 7 -24 -37 -25 -43 -1 -40 -3 26 -14 33 -5 37 -9
31 -27 -3 -12 -1 -24 6 -28 19 -12 2 -32 -18 -21 -9 5 -25 6 -35 2 -13 -5 -6
-10 28 -19 48 -13 64 -38 18 -28 -16 3 -35 2 -43 -4 -12 -8 -9 -10 13 -10 35
0 70 -18 62 -31 -4 -5 -18 -8 -33 -7 -29 1 -266 -61 -258 -69 2 -3 54 9 115
27 79 22 121 29 146 24 54 -10 45 -34 -12 -35 -32 -1 -38 -3 -18 -6 65 -8 77
-13 66 -27 -6 -7 -22 -11 -35 -9 -12 3 -56 -5 -97 -16 -41 -12 -91 -26 -112
-32 -22 -6 -37 -13 -34 -16 3 -2 46 7 96 21 96 28 150 32 182 15 31 -16 12
-30 -34 -25 -23 3 -48 2 -55 -3 -9 -5 6 -9 38 -10 28 0 56 -3 61 -7 15 -9 0
-24 -24 -25 -22 -1 -22 -1 1 -7 38 -11 30 -27 -18 -32 l-45 -6 48 -8 c55 -10
59 -30 6 -32 -30 -1 -437 -107 -443 -116 -33 -49 -93 -162 -120 -226 -20 -45
-54 -114 -76 -152 -40 -68 -48 -90 -32 -90 9 0 74 110 96 163 8 20 19 37 23
38 15 1 38 7 56 14 14 6 17 2 18 -21 1 -17 3 -22 6 -11 7 26 33 21 33 -6 0
-13 -20 -65 -45 -116 -160 -329 -439 -570 -785 -679 -91 -29 -207 -52 -260
-53 -14 0 -51 -2 -82 -4 -71 -4 -214 11 -318 34 -538 119 -944 559 -1020 1106
-6 44 -12 113 -13 152 -1 40 -5 73 -9 73 -4 0 -5 10 -3 23 2 12 6 51 10 87 9
92 38 212 75 305 42 107 45 116 22 75 -29 -52 -77 -194 -98 -290 -15 -67 -18
-124 -18 -270 1 -172 4 -193 32 -300 136 -522 546 -904 1068 -995 111 -19 334
-19 443 0 427 75 803 360 976 740 38 82 98 278 109 350 3 22 5 41 6 43 0 1 7
2 15 2 19 0 19 -36 0 -120 -38 -163 -102 -315 -191 -452 -53 -83 -50 -90 4
-10 51 75 102 171 135 254 31 77 77 238 77 267 0 11 5 32 10 47 8 20 14 24 22
16 29 -29 -42 -288 -123 -446 -123 -243 -309 -442 -536 -577 -101 -59 -249
-123 -270 -115 -8 3 -12 2 -9 -3 8 -13 -150 -54 -210 -55 -29 -1 -50 -4 -47
-8 4 -8 -32 -11 -164 -13 -46 -1 -73 3 -73 9 0 6 -5 4 -10 -4 -5 -8 -10 -10
-10 -5 0 6 -21 12 -47 12 -82 3 -247 36 -308 62 -11 5 -54 22 -95 37 -159 62
-333 178 -468 314 -83 84 -197 240 -246 337 -68 136 -126 322 -142 458 -6 48
-9 55 -15 35 -6 -20 -7 -21 -8 -5 0 11 3 27 8 35 6 8 7 19 3 25 -3 5 -7 26 -7
45 -1 19 -5 48 -10 64 -5 18 -1 78 9 160 20 146 84 355 140 455 35 60 48 91
41 91 -3 0 -19 -25 -36 -55 -17 -30 -33 -55 -35 -55 -2 0 -13 9 -24 20 -22 22
-44 27 -38 8 3 -7 11 -13 19 -13 8 0 13 -8 10 -20 -2 -11 -3 -36 -3 -55 1 -43
-40 -162 -58 -168 -8 -3 -10 0 -6 7 4 7 0 11 -11 11 -11 0 -25 6 -32 13 -10
10 -12 8 -9 -8 2 -12 11 -19 22 -18 15 1 17 -4 11 -34 -3 -20 -2 -40 5 -48 16
-19 -8 -154 -32 -174 -22 -19 -24 -67 -3 -75 20 -7 22 -158 1 -175 -16 -13 -9
-61 11 -76 20 -15 45 -152 32 -173 -13 -21 4 -72 24 -72 19 0 72 -149 58 -163
-14 -14 12 -63 37 -69 23 -6 95 -126 87 -146 -8 -21 22 -62 44 -62 22 0 114
-104 116 -131 2 -26 36 -60 54 -54 21 6 141 -91 141 -115 0 -23 44 -52 57 -39
14 14 142 -58 153 -86 9 -24 48 -39 74 -29 24 9 155 -37 161 -57 7 -22 61 -35
79 -20 18 15 144 -4 166 -24 25 -23 65 -28 79 -11 10 12 33 16 92 16 43 0 81
-4 84 -10 10 -16 75 -12 75 4 0 16 9 20 97 37 46 8 66 9 76 0 9 -7 24 -8 45
-2 24 7 32 6 36 -6 9 -21 9 -21 -26 -29 -18 -3 -38 -13 -44 -22 -10 -14 -152
-47 -162 -37 -3 2 4 7 14 11 10 3 26 8 34 12 8 3 22 6 30 7 32 2 61 17 57 28
-8 23 -134 2 -148 -24 -5 -11 -17 -19 -27 -19 -9 0 -30 -7 -46 -15 -16 -9 -53
-15 -85 -14 -33 0 -49 3 -38 8 15 5 12 9 -17 19 -24 9 -41 10 -53 3 -11 -5
-24 -6 -34 0 -12 6 -21 4 -29 -6 -7 -8 -27 -15 -44 -14 -28 0 -29 1 -8 9 22 9
31 40 11 40 -5 0 -7 -6 -4 -12 4 -7 -1 -4 -9 6 -13 16 -20 18 -41 8 -14 -6
-25 -8 -25 -3 0 15 -32 22 -46 10 -10 -8 -23 -8 -49 1 -28 9 -39 9 -51 -1 -13
-11 -18 -11 -28 2 -6 9 -47 32 -91 51 -100 45 -125 52 -125 39 0 -19 -17 -12
-23 9 -3 11 -1 18 4 14 5 -3 6 2 3 10 -6 15 -22 20 -50 17 -6 -1 -19 8 -29 19
-10 11 -25 20 -34 20 -14 0 -14 -2 -1 -10 8 -5 11 -10 7 -10 -4 0 -24 16 -43
35 -27 27 -41 34 -56 29 -17 -5 -20 -3 -15 10 4 9 2 16 -3 16 -5 0 -11 8 -14
18 -4 10 -17 19 -33 20 -28 2 -76 39 -68 53 8 13 -54 59 -72 52 -14 -5 -14 -3
1 20 10 15 13 28 7 31 -5 4 -11 -2 -13 -11 -3 -15 -10 -11 -43 19 l-40 37 30
-5 c28 -5 29 -4 10 10 -11 8 -23 12 -27 10 -4 -3 -17 0 -29 7 -13 7 -18 14
-11 18 18 11 -27 73 -47 66 -13 -5 -13 -4 -4 6 10 10 9 15 -5 25 -10 7 -17 26
-17 46 0 23 -5 33 -15 33 -8 0 -26 8 -40 18 -19 14 -22 19 -12 26 12 7 11 14
-2 40 -9 17 -15 39 -14 49 2 12 -3 16 -16 14 -14 -3 -17 1 -12 13 3 9 2 14 -3
10 -8 -5 -34 53 -36 80 0 6 -8 9 -18 9 -20 -2 -23 14 -4 22 14 5 20 134 5 134
-4 0 -5 -7 -1 -16 4 -12 2 -15 -8 -12 -7 2 -20 27 -27 54 -22 77 -26 82 -29
39 -2 -22 3 -69 11 -105 13 -62 13 -66 -6 -81 -27 -21 -16 -60 15 -56 14 1 23
-4 25 -17 3 -15 0 -18 -17 -13 -12 3 -19 1 -15 -4 3 -5 -1 -9 -10 -9 -8 0 -17
6 -20 13 -4 9 -8 9 -11 1 -11 -22 -46 -2 -52 27 -3 16 -9 29 -14 29 -5 0 -9 6
-9 14 0 7 23 23 50 35 52 23 70 38 23 20 -16 -6 -43 -12 -62 -14 -28 -3 -31
-1 -20 10 17 16 88 37 101 29 14 -9 9 14 -6 29 -9 8 -12 24 -9 36 6 24 -12 29
-21 6 -6 -17 -52 -17 -66 1 -5 6 -11 21 -14 35 -2 13 -9 23 -15 21 -18 -4 -13
26 7 36 28 15 110 24 116 13 12 -19 44 25 39 53 -4 18 0 28 11 32 23 9 20 21
-7 20 -20 -1 -22 4 -27 64 -3 36 -8 60 -13 53 -10 -16 -11 -51 -3 -98 6 -29 5
-36 -3 -25 -6 8 -11 27 -11 42 0 30 -39 49 -83 41 -20 -4 -29 0 -34 13 -6 16
-7 16 -14 -2 -5 -13 -8 -4 -8 27 -1 58 15 73 77 71 35 -1 43 1 32 8 -8 6 -33
9 -55 8 l-40 -3 -5 45 -5 45 -8 -49 c-20 -136 1 -401 47 -577 142 -543 557
-989 1083 -1163 200 -66 329 -87 536 -87 650 1 1228 363 1508 945 66 137 100
236 132 383 32 150 46 132 16 -20 -5 -27 -7 -53 -3 -58 3 -5 0 -9 -6 -9 -7 0
-10 -7 -6 -15 3 -8 1 -15 -4 -15 -6 0 -10 -10 -10 -22 -1 -13 -8 -41 -16 -63
-9 -22 -16 -48 -15 -57 0 -10 -4 -18 -10 -18 -5 0 -9 -5 -9 -10 0 -6 -9 -29
-20 -52 -11 -22 -17 -45 -13 -51 3 -6 1 -7 -5 -3 -7 4 -12 3 -12 -2 0 -6 7
-12 15 -16 10 -4 15 1 15 14 0 11 4 20 9 20 8 0 21 34 26 65 1 6 8 26 17 45 9
19 14 38 12 42 -3 5 0 8 5 8 6 0 11 10 11 23 0 12 7 35 15 51 8 15 15 39 15
52 0 13 4 32 9 42 10 19 31 194 31 255 0 23 5 37 13 37 8 0 8 3 1 8 -6 4 -10
42 -10 92 1 132 -10 225 -48 400 -28 130 -72 247 -148 389 -75 141 -89 164
-102 176 -7 5 -47 54 -90 108 -82 101 -164 183 -259 258 -32 24 -57 49 -57 56
0 7 -7 13 -16 13 -8 0 -53 23 -100 50 -145 86 -217 119 -379 175 -56 19 -205
52 -300 66 -71 10 -352 19 -360 11z m1753 -1813 c22 12 39 3 44 -24 2 -15 -3
-21 -21 -23 -13 -2 -27 1 -31 8 -5 8 -14 8 -34 0 -37 -14 -46 -13 -40 4 3 8 0
17 -6 21 -8 5 -8 10 1 21 9 11 15 11 40 -2 20 -10 35 -12 47 -5z m-110 -31 c7
-7 12 -23 12 -37 0 -24 4 -26 49 -28 41 -1 50 2 54 18 3 10 13 19 22 19 16 0
17 -7 11 -57 -11 -85 -13 -106 -15 -130 0 -12 -8 -29 -17 -38 -9 -9 -18 -31
-20 -48 -5 -57 -30 -101 -56 -102 -28 0 -39 -41 -14 -51 19 -7 21 -34 4 -34
-7 0 -25 11 -40 23 -21 19 -25 26 -15 36 9 9 9 14 -3 21 -8 5 -17 7 -21 4 -4
-2 -10 0 -13 5 -8 12 -58 -37 -73 -70 -6 -14 -8 -32 -3 -39 6 -9 10 -7 14 8
14 42 31 45 88 16 29 -14 55 -28 57 -30 6 -6 -30 -94 -39 -94 -4 0 -35 15 -68
34 -47 27 -62 31 -66 20 -3 -9 1 -14 12 -14 13 0 22 -13 31 -49 12 -47 13 -49
30 -33 16 15 17 18 3 30 -14 10 -12 12 10 12 37 0 40 -20 9 -76 -23 -42 -45
-60 -46 -36 0 4 -7 28 -14 54 -17 60 -37 80 -35 35 1 -18 3 -38 5 -46 6 -22
-19 -24 -26 -2 -18 58 -95 15 -102 -57 -1 -13 -21 -45 -43 -72 -38 -45 -51
-54 -72 -51 -10 1 -58 -59 -58 -73 0 -14 -76 -89 -107 -105 -19 -10 -22 -8
-28 19 -4 17 -13 30 -22 30 -22 0 -14 12 45 63 30 27 62 47 76 47 12 0 31 9
40 19 10 11 25 17 33 14 11 -4 14 -1 11 13 -2 10 -10 18 -16 17 -22 -5 -13 16
31 72 28 36 49 55 63 55 12 0 24 7 28 15 3 8 17 20 31 25 17 6 23 14 19 25 -4
9 -13 14 -20 11 -21 -8 -17 8 16 75 20 38 40 63 55 69 14 5 25 16 25 24 0 8 7
19 15 24 10 5 13 15 9 25 -3 9 -10 14 -15 11 -13 -7 -12 -1 12 77 13 43 26 69
35 69 8 0 17 8 20 18 3 9 11 28 17 41 9 19 8 25 -6 36 -12 9 -16 21 -12 36 3
13 7 41 9 61 3 21 7 42 11 48 9 14 58 13 73 -2z m185 -13 c-3 -9 -8 -14 -10
-11 -3 3 -2 9 2 15 9 16 15 13 8 -4z m3 -45 c0 -11 -4 -20 -8 -20 -4 0 -8 9
-8 20 0 11 4 20 8 20 4 0 8 -9 8 -20z m-3211 -347 c11 -15 17 -15 39 -5 15 7
36 12 46 12 33 0 22 -28 -15 -40 -19 -6 -37 -16 -40 -21 -9 -14 24 -76 51 -94
29 -19 31 -9 4 25 -11 14 -20 28 -20 33 0 15 22 6 40 -15 25 -31 39 -14 18 22
-9 17 -13 32 -8 35 11 7 50 -53 50 -77 0 -9 3 -23 6 -32 4 -11 -5 -22 -30 -37
-20 -11 -36 -25 -36 -30 0 -4 16 1 35 12 33 20 65 20 65 1 0 -5 -18 -19 -41
-31 -51 -29 -43 -40 11 -16 29 13 44 15 51 8 14 -14 -34 -48 -52 -37 -7 4 -9
3 -5 -4 3 -6 -3 -14 -15 -17 -20 -7 -48 16 -49 41 0 6 -11 21 -25 34 -13 12
-22 27 -19 31 3 5 -9 38 -25 73 -17 35 -31 68 -31 74 0 5 -11 21 -25 35 -18
18 -22 27 -13 30 20 8 20 8 33 -10z m2870 -349 c14 -9 25 -24 25 -33 0 -15
-124 -171 -135 -171 -2 0 -16 12 -32 28 -15 15 -39 35 -53 44 -24 17 -24 17
-3 17 12 1 25 -4 29 -10 4 -7 17 -1 35 17 28 26 29 27 55 9 l27 -17 -19 25
c-11 14 -29 31 -41 38 -23 13 -31 29 -14 29 6 0 13 -4 16 -10 10 -17 20 -12
38 20 20 34 37 37 72 14z m-2638 -5 c8 -8 17 -7 32 2 17 11 23 11 33 1 11 -11
8 -16 -11 -31 -28 -22 -13 -38 20 -21 31 17 48 -3 26 -28 -16 -18 -16 -20 0
-35 14 -12 23 -13 36 -5 15 8 23 5 39 -12 18 -19 19 -26 9 -43 -11 -16 -10
-22 3 -36 14 -13 20 -14 38 -2 16 10 22 10 28 0 11 -16 -5 -39 -44 -65 l-32
-21 -36 37 c-25 25 -34 41 -28 50 7 11 11 11 24 0 9 -7 14 -15 11 -18 -9 -10
17 -32 39 -32 18 0 15 6 -22 40 -35 33 -47 38 -62 30 -31 -17 -112 75 -82 94
10 6 43 -30 35 -37 -2 -3 7 -13 21 -23 44 -28 39 -9 -11 44 -26 28 -56 63 -66
77 -18 26 -39 34 -34 14 1 -6 -4 -14 -12 -17 -8 -3 -11 0 -7 7 4 6 2 11 -5 11
-8 0 -8 4 1 15 15 18 41 20 57 4z m18 -89 c-3 -5 -10 -10 -16 -10 -5 0 -9 5
-9 10 0 6 7 10 16 10 8 0 12 -4 9 -10z m2463 -99 c29 -25 28 -39 -5 -73 -32
-34 -46 -35 -62 -5 -6 12 -25 31 -41 42 -32 21 -31 41 2 24 17 -9 24 -7 41 10
26 26 35 26 65 2z m-2174 -69 c3 -5 -8 -25 -25 -44 l-29 -36 35 -30 c26 -21
43 -28 61 -24 25 4 24 5 -15 32 -46 30 -45 48 1 24 16 -8 37 -14 46 -12 13 3
7 10 -20 28 -21 14 -38 28 -38 33 0 30 107 -47 116 -83 15 -64 14 -62 32 -40
l17 21 63 -31 c34 -16 62 -34 62 -40 0 -5 7 -10 15 -10 8 0 15 -5 15 -10 0 -6
-7 -27 -15 -47 -18 -42 -18 -43 -5 -43 6 0 17 18 26 40 9 22 22 40 30 40 18 0
18 -19 -2 -65 -11 -27 -12 -36 -3 -33 7 2 18 19 24 38 12 37 32 50 40 28 6
-14 -19 -83 -37 -106 -9 -10 -13 -10 -22 1 -6 8 -27 20 -46 27 -46 18 -61 30
-53 44 4 6 0 5 -9 -2 -9 -7 -18 -9 -20 -5 -1 4 -21 17 -43 29 -22 11 -39 25
-38 32 2 6 -4 9 -11 6 -11 -4 -18 10 -27 55 -11 59 -28 77 -45 49 -5 -8 -2 -9
9 -5 24 9 21 -3 -9 -38 -16 -18 -23 -23 -20 -12 5 15 2 17 -15 12 -15 -5 -19
-4 -15 4 4 6 1 11 -6 11 -8 0 -40 23 -73 50 -33 28 -63 50 -68 50 -4 0 -5 5
-2 10 4 6 14 8 24 5 11 -3 25 5 39 25 22 29 46 38 56 22z m1867 -41 c-17 -15
-31 -32 -31 -39 0 -7 -17 -23 -37 -35 -25 -14 -32 -23 -22 -25 8 -1 25 -23 38
-49 12 -25 25 -43 28 -39 7 6 -27 79 -39 84 -5 2 -8 8 -8 13 0 14 38 11 71 -7
39 -20 49 -11 21 19 -25 27 -28 37 -9 37 14 0 67 -77 67 -97 0 -16 -26 -17
-35 -2 -4 6 -13 8 -20 5 -8 -3 -16 0 -18 7 -2 7 -8 9 -12 5 -4 -4 -2 -21 5
-38 10 -23 10 -34 1 -43 -6 -6 -11 -8 -11 -4 0 3 -12 -5 -26 -18 -26 -24 -61
-35 -50 -16 4 5 0 11 -6 14 -8 2 -1 10 15 17 27 13 32 21 20 33 -3 4 -11 -1
-18 -9 -8 -11 -19 -14 -34 -9 -18 5 -20 9 -10 21 6 8 20 14 30 14 11 0 19 4
19 8 0 18 -12 20 -38 6 -36 -18 -51 4 -19 29 l22 18 -22 -10 c-49 -24 -73 2
-35 37 9 10 13 14 8 10 -14 -11 -56 -10 -56 2 0 15 119 80 148 80 15 0 36 7
46 15 15 11 23 12 34 3 12 -10 9 -16 -17 -37z m167 7 c18 -23 32 -49 32 -58 0
-9 -20 -31 -44 -48 -48 -35 -56 -38 -56 -22 0 14 -41 72 -57 83 -17 11 -16 27
1 27 8 0 24 -16 36 -35 12 -20 25 -34 29 -33 3 2 18 10 34 17 15 8 27 18 27
23 0 5 -11 1 -26 -8 -20 -13 -28 -14 -37 -5 -9 10 -8 16 7 27 16 11 22 11 28
1 5 -8 8 -7 8 6 0 9 -9 25 -20 34 -23 20 -26 33 -7 33 7 0 27 -19 45 -42z
m-364 -113 c4 -10 -5 -20 -29 -29 -41 -18 -48 -46 -10 -38 22 4 28 -2 45 -39
30 -67 27 -84 -20 -103 -45 -18 -64 -20 -56 -7 3 5 -1 12 -10 15 -12 4 -14 1
-9 -14 5 -17 -1 -24 -41 -41 -49 -22 -63 -17 -64 23 0 9 -4 20 -10 23 -5 3
-10 15 -10 26 0 10 -4 19 -10 19 -13 0 -13 0 5 -50 20 -55 19 -59 -7 -69 -41
-15 -78 -22 -77 -14 2 15 -13 53 -22 53 -5 0 -6 -13 -3 -29 7 -32 3 -36 -47
-45 -35 -6 -38 -5 -50 26 l-13 33 -4 -37 c-3 -32 -7 -38 -27 -38 -13 0 -31 -3
-41 -7 -12 -4 -15 -3 -10 5 4 7 1 12 -8 12 -9 0 -16 -5 -16 -11 0 -6 -9 -9
-20 -6 -11 3 -20 1 -20 -4 0 -5 -11 -9 -25 -9 -21 0 -25 5 -25 30 0 17 -4 30
-8 30 -5 0 -9 6 -9 13 0 6 -4 25 -8 41 -6 22 -5 28 6 24 8 -2 15 -17 17 -31 3
-23 8 -27 38 -27 32 0 34 2 32 31 -3 31 -3 31 54 36 50 4 57 2 63 -16 6 -18
12 -20 48 -15 52 8 54 10 40 33 -13 21 -8 32 13 24 8 -3 14 -14 14 -25 0 -15
4 -18 18 -13 9 3 29 9 45 12 29 6 35 21 15 41 -9 9 -5 14 18 22 21 7 29 17 30
35 1 15 -3 25 -12 25 -8 0 -14 2 -14 4 0 2 -3 11 -6 19 -7 20 118 70 155 63
14 -3 33 -2 41 4 22 14 37 12 44 -5z m-374 -130 c0 -7 -30 -13 -34 -7 -3 4 4
9 15 9 10 1 19 0 19 -2z m-719 -20 c30 -9 79 -24 109 -34 l55 -18 -3 -46 c-3
-36 0 -47 11 -47 17 0 27 42 15 63 -5 9 -4 18 2 22 20 13 29 -7 23 -50 -5 -38
-3 -45 11 -45 16 0 18 4 20 55 0 17 6 31 11 33 14 3 18 -83 6 -107 -10 -17
-14 -18 -48 -5 -21 7 -46 13 -55 14 -19 0 -20 4 -19 65 0 22 -2 34 -5 28 -8
-18 -24 -16 -24 2 0 19 -46 38 -71 30 -11 -4 -19 -16 -19 -30 0 -22 -39 -81
-40 -60 0 6 -12 12 -27 13 -31 2 -48 17 -58 51 -6 18 -4 23 7 19 9 -4 14 1 14
12 0 10 -4 16 -8 14 -10 -6 -11 20 -1 29 10 11 36 8 94 -8z m44 -92 c-8 -27
-15 -49 -15 -50 0 -2 -4 -3 -9 -3 -6 0 -5 15 0 38 15 57 18 62 28 62 6 0 4
-19 -4 -47z"/>
<path d="M4130 2165 c0 -21 5 -25 29 -25 16 0 41 -4 55 -10 22 -8 25 -6 23 13
-1 21 -14 37 -30 37 -5 0 -5 -6 0 -12 4 -7 -5 -5 -20 5 -38 24 -57 22 -57 -8z"/>
<path d="M4120 2115 c0 -8 -7 -18 -16 -23 -9 -5 -17 -27 -20 -53 l-5 -44 18
33 c14 26 22 33 41 29 17 -3 26 2 38 24 8 16 13 29 12 29 -2 0 -18 4 -36 9
-25 8 -32 7 -32 -4z"/>
<path d="M4217 2083 c-4 -3 -7 -11 -7 -17 0 -6 5 -5 12 2 6 6 9 14 7 17 -3 3
-9 2 -12 -2z"/>
<path d="M4132 1982 c-2 -26 12 -42 36 -42 6 0 12 6 12 14 0 8 6 16 13 19 7 3
5 7 -8 12 -11 3 -27 10 -35 15 -12 6 -16 2 -18 -18z"/>
<path d="M4070 1936 c0 -8 -3 -21 -6 -30 -5 -12 0 -16 19 -16 14 0 29 5 32 10
3 6 18 10 33 11 27 1 27 1 -5 12 -17 7 -35 15 -39 20 -12 12 -34 8 -34 -7z"/>
<path d="M4041 1752 c-7 -13 -10 -26 -9 -27 2 -1 14 -8 26 -15 21 -10 27 -9
44 10 19 21 19 22 2 35 -34 25 -51 24 -63 -3z"/>
<path d="M1130 1830 c-8 -5 -10 -10 -5 -10 6 0 17 5 25 10 8 5 11 10 5 10 -5
0 -17 -5 -25 -10z"/>
<path d="M1230 1719 c0 -5 5 -7 10 -4 6 3 10 8 10 11 0 2 -4 4 -10 4 -5 0 -10
-5 -10 -11z"/>
<path d="M1250 1630 c-9 -6 -10 -10 -3 -10 6 0 15 5 18 10 8 12 4 12 -15 0z"/>
<path d="M3935 1474 c-22 -34 -14 -40 14 -10 12 13 18 27 13 30 -5 3 -17 -6
-27 -20z"/>
<path d="M3880 1390 c0 -5 5 -10 11 -10 5 0 7 5 4 10 -3 6 -8 10 -11 10 -2 0
-4 -4 -4 -10z"/>
<path d="M3776 1284 l-19 -26 27 17 c14 10 26 21 26 26 0 16 -15 9 -34 -17z"/>
<path d="M1859 1071 c11 -7 10 -13 -5 -36 -17 -26 -17 -28 1 -41 13 -10 22
-11 31 -3 8 7 13 6 16 -3 3 -8 7 -6 11 6 4 11 3 15 -4 10 -7 -4 -10 -1 -7 7 3
8 11 13 17 12 6 -2 11 2 11 7 0 11 -59 50 -75 50 -5 0 -4 -4 4 -9z"/>
<path d="M3160 1060 c-8 -5 -10 -10 -5 -10 6 0 17 5 25 10 8 5 11 10 5 10 -5
0 -17 -5 -25 -10z"/>
<path d="M3135 1030 c-3 -5 -1 -10 4 -10 6 0 11 5 11 10 0 6 -2 10 -4 10 -3 0
-8 -4 -11 -10z"/>
<path d="M3175 1005 c-23 -10 -26 -13 -10 -14 11 0 29 6 39 14 24 19 11 19
-29 0z"/>
<path d="M3262 995 c-19 -10 -52 -55 -52 -70 0 -2 19 -1 43 1 23 3 48 6 55 6
6 1 12 3 12 5 0 7 -29 73 -32 72 -2 -1 -14 -7 -26 -14z"/>
<path d="M3194 979 c-3 -6 -1 -16 5 -22 8 -8 11 -5 11 11 0 24 -5 28 -16 11z"/>
<path d="M3153 956 c-7 -8 -17 -16 -23 -18 -8 -2 -8 -12 0 -35 11 -29 13 -31
41 -21 34 12 33 9 15 53 -17 39 -17 39 -33 21z"/>
<path d="M3071 882 c-1 -7 -13 -17 -27 -23 -35 -13 -27 -19 12 -11 26 6 30 10
23 27 -4 11 -8 14 -8 7z"/>
<path d="M2770 862 c0 -14 7 -17 40 -14 22 2 40 8 40 14 0 5 -13 7 -30 3 -19
-4 -30 -3 -30 4 0 6 -4 11 -10 11 -5 0 -10 -8 -10 -18z"/>
<path d="M2950 854 c0 -6 -10 -16 -22 -22 -22 -10 -21 -11 10 -11 17 -1 32 2
32 7 0 12 -20 38 -20 26z"/>
<path d="M2773 809 c-1 -15 2 -19 13 -15 9 3 27 6 40 6 15 0 24 6 24 15 0 17
-29 17 -43 0 -6 -6 -10 -6 -14 3 -7 19 -19 14 -20 -9z"/>
<path d="M2723 806 c-30 -14 -29 -24 2 -18 14 2 25 11 25 18 0 8 -1 13 -2 13
-2 -1 -13 -6 -25 -13z"/>
<path d="M2153 937 c3 -15 25 -25 57 -26 21 -1 22 1 10 13 -20 19 -70 29 -67
13z"/>
<path d="M2144 888 c-9 -14 5 -26 35 -30 24 -3 30 0 33 16 4 18 -1 21 -29 22
-19 0 -36 -3 -39 -8z"/>
<path d="M2425 4030 c3 -5 15 -10 26 -10 10 0 19 5 19 10 0 6 -12 10 -26 10
-14 0 -23 -4 -19 -10z"/>
<path d="M2650 4025 c-9 -10 -9 -15 -1 -15 6 0 11 4 11 9 0 6 17 12 38 14 l37
4 -36 1 c-22 1 -42 -4 -49 -13z"/>
<path d="M2805 4030 c-4 -6 7 -10 27 -9 27 0 30 2 13 9 -27 12 -33 12 -40 0z"/>
<path d="M2300 4016 c0 -2 9 -6 20 -9 11 -3 20 -1 20 4 0 5 -9 9 -20 9 -11 0
-20 -2 -20 -4z"/>
<path d="M2920 4010 c8 -5 24 -10 35 -10 17 0 17 2 5 10 -8 5 -24 10 -35 10
-17 0 -17 -2 -5 -10z"/>
<path d="M2230 3989 c0 -5 9 -9 20 -9 11 0 20 4 20 8 0 4 -9 8 -20 9 -11 1
-20 -2 -20 -8z"/>
<path d="M2476 3978 c10 -36 26 -58 20 -28 -3 14 -6 31 -6 38 0 6 -5 12 -11
12 -6 0 -8 -9 -3 -22z"/>
<path d="M2175 3980 c-19 -9 -19 -9 2 -16 15 -4 27 -19 35 -45 6 -22 15 -39
20 -39 6 0 7 6 4 13 -3 6 -11 31 -18 55 -13 45 -13 45 -43 32z"/>
<path d="M2356 3955 c3 -16 11 -34 17 -40 6 -7 7 0 3 20 -4 17 -12 35 -17 40
-7 7 -8 0 -3 -20z"/>
<path d="M2130 3960 c0 -8 5 -22 10 -30 9 -13 10 -13 10 0 0 8 -5 22 -10 30
-9 13 -10 13 -10 0z"/>
<path d="M3154 3955 c11 -8 25 -15 30 -15 6 0 2 7 -8 15 -11 8 -25 15 -30 15
-6 0 -2 -7 8 -15z"/>
<path d="M2265 3933 c7 -30 13 -39 19 -32 8 8 -6 59 -16 59 -6 0 -7 -11 -3
-27z"/>
<path d="M2617 3953 c-4 -3 -7 -11 -7 -17 0 -6 5 -5 12 2 6 6 9 14 7 17 -3 3
-9 2 -12 -2z"/>
<path d="M2520 3940 c0 -6 7 -10 15 -10 8 0 15 2 15 4 0 2 -7 6 -15 10 -8 3
-15 1 -15 -4z"/>
<path d="M2650 3940 c0 -6 24 -10 53 -10 28 0 63 -3 77 -6 17 -5 22 -3 15 3
-14 14 -145 25 -145 13z"/>
<path d="M2050 3933 c0 -18 33 -93 41 -93 12 0 11 17 0 25 -5 3 -12 19 -16 35
-6 27 -25 52 -25 33z"/>
<path d="M2395 3930 c-3 -5 -1 -10 4 -10 6 0 11 5 11 10 0 6 -2 10 -4 10 -3 0
-8 -4 -11 -10z"/>
<path d="M3020 3930 c0 -5 5 -10 10 -10 6 0 10 5 10 10 0 6 -4 10 -10 10 -5 0
-10 -4 -10 -10z"/>
<path d="M1985 3920 c-8 -13 5 -13 25 0 13 8 13 10 -2 10 -9 0 -20 -4 -23 -10z"/>
<path d="M2860 3922 c0 -13 49 -22 56 -11 3 5 -1 9 -10 9 -8 0 -21 3 -30 6 -9
3 -16 2 -16 -4z"/>
<path d="M3120 3921 c0 -5 14 -14 30 -20 36 -12 40 1 5 17 -31 14 -35 15 -35
3z"/>
<path d="M3250 3921 c0 -10 30 -24 37 -17 3 2 -5 9 -16 16 -12 6 -21 7 -21 1z"/>
<path d="M2113 3896 c27 -25 57 -34 57 -18 0 6 -26 20 -75 39 -5 3 3 -7 18
-21z"/>
<path d="M2425 3910 c-3 -5 -2 -10 4 -10 5 0 13 5 16 10 3 6 2 10 -4 10 -5 0
-13 -4 -16 -10z"/>
<path d="M2940 3910 c-13 -8 -12 -10 3 -10 9 0 17 5 17 10 0 12 -1 12 -20 0z"/>
<path d="M1790 3889 c0 -5 5 -7 10 -4 6 3 10 8 10 11 0 2 -4 4 -10 4 -5 0 -10
-5 -10 -11z"/>
<path d="M1965 3850 c14 -28 30 -48 35 -45 6 4 5 12 -3 20 -8 7 -20 27 -27 44
-7 17 -16 31 -21 31 -5 0 2 -23 16 -50z"/>
<path d="M3066 3884 c-4 -9 -4 -19 -2 -21 8 -8 26 8 26 23 0 19 -16 18 -24 -2z"/>
<path d="M1750 3875 c-7 -8 -9 -15 -6 -15 4 0 14 7 22 15 9 8 11 15 6 15 -5 0
-15 -7 -22 -15z"/>
<path d="M3215 3880 c9 -15 45 -32 45 -22 0 5 -12 14 -26 20 -14 7 -23 8 -19
2z"/>
<path d="M1880 3870 c-12 -9 -12 -10 5 -8 11 1 26 -1 34 -6 9 -6 12 -5 9 5 -6
18 -29 22 -48 9z"/>
<path d="M3330 3870 c0 -8 24 -20 41 -20 6 0 8 4 5 9 -8 12 -46 21 -46 11z"/>
<path d="M2510 3863 c1 -25 18 -31 70 -23 l55 8 -52 1 c-29 0 -53 6 -53 11 0
6 -4 10 -10 10 -5 0 -10 -3 -10 -7z"/>
<path d="M2750 3860 c0 -5 5 -10 10 -10 6 0 10 -7 10 -15 0 -9 9 -15 23 -15
12 0 46 -3 75 -6 36 -5 52 -3 52 5 0 6 -17 11 -43 11 -23 0 -60 9 -82 20 -46
23 -45 23 -45 10z"/>
<path d="M1840 3839 c0 -15 44 -89 53 -89 4 0 7 5 7 10 0 6 -3 10 -7 10 -9 0
-33 49 -33 67 0 7 -4 13 -10 13 -5 0 -10 -5 -10 -11z"/>
<path d="M3180 3841 c0 -6 13 -17 30 -26 34 -18 44 -19 35 -5 -10 16 -65 42
-65 31z"/>
<path d="M3300 3841 c0 -11 40 -41 55 -41 5 0 -2 11 -17 25 -29 27 -38 30 -38
16z"/>
<path d="M1670 3820 c-9 -6 -10 -10 -3 -10 6 0 15 5 18 10 8 12 4 12 -15 0z"/>
<path d="M2260 3816 c0 -19 14 -28 34 -20 15 6 15 8 -1 20 -23 17 -33 17 -33
0z"/>
<path d="M2980 3817 c19 -8 36 -20 38 -29 2 -8 28 -23 60 -33 31 -9 63 -20 70
-22 6 -3 12 2 12 11 0 9 -7 16 -16 16 -19 0 -117 41 -124 52 -4 4 -22 10 -40
13 l-35 5 35 -13z"/>
<path d="M3440 3821 c0 -5 7 -12 16 -15 14 -5 15 -4 4 9 -14 17 -20 19 -20 6z"/>
<path d="M3260 3800 c0 -11 59 -44 67 -37 4 5 -50 47 -61 47 -3 0 -6 -4 -6
-10z"/>
<path d="M3400 3801 c0 -11 31 -36 53 -44 9 -4 17 -3 17 1 -1 10 -70 53 -70
43z"/>
<path d="M1750 3785 c0 -11 53 -85 61 -85 14 0 10 9 -16 38 -14 15 -25 32 -25
39 0 7 -4 13 -10 13 -5 0 -10 -2 -10 -5z"/>
<path d="M1549 3741 c-24 -21 -40 -43 -36 -47 5 -5 26 10 47 33 21 22 42 38
46 34 4 -3 4 0 0 7 -10 16 -8 17 -57 -27z"/>
<path d="M2143 3770 c-13 -5 -23 -12 -23 -15 0 -9 16 -5 36 10 22 16 19 18
-13 5z"/>
<path d="M2748 3773 c7 -3 16 -2 19 1 4 3 -2 6 -13 5 -11 0 -14 -3 -6 -6z"/>
<path d="M1694 3758 c-4 -6 -3 -8 4 -4 6 3 22 -8 36 -26 29 -38 34 -30 9 13
-18 30 -37 37 -49 17z"/>
<path d="M2833 3763 c9 -2 23 -2 30 0 6 3 -1 5 -18 5 -16 0 -22 -2 -12 -5z"/>
<path d="M3355 3760 c-3 -5 -1 -10 4 -10 6 0 11 5 11 10 0 6 -2 10 -4 10 -3 0
-8 -4 -11 -10z"/>
<path d="M3530 3755 c7 -8 20 -15 29 -15 13 1 13 3 -3 15 -26 19 -42 19 -26 0z"/>
<path d="M2960 3736 c187 -54 297 -103 435 -197 184 -124 330 -287 445 -496
20 -37 40 -55 40 -38 0 6 -52 92 -98 164 -137 212 -344 388 -577 493 -95 42
-229 86 -288 93 -26 3 -10 -4 43 -19z"/>
<path d="M3190 3751 c0 -10 61 -34 68 -27 4 4 -51 36 -63 36 -3 0 -5 -4 -5 -9z"/>
<path d="M2025 3740 c-7 -12 2 -30 16 -30 12 0 12 27 0 35 -5 3 -12 1 -16 -5z"/>
<path d="M2720 3729 c0 -5 11 -9 25 -9 14 0 25 2 25 4 0 2 -11 6 -25 8 -14 3
-25 1 -25 -3z"/>
<path d="M2782 3725 c3 -4 48 -15 99 -25 177 -36 326 -99 480 -202 106 -70
267 -224 324 -310 21 -32 42 -58 48 -58 24 0 -109 166 -206 256 -164 152 -398
274 -607 317 -107 22 -144 28 -138 22z"/>
<path d="M3590 3722 c0 -12 19 -26 26 -19 2 2 -2 10 -11 17 -9 8 -15 8 -15 2z"/>
<path d="M1636 3708 c17 -30 67 -89 71 -84 7 7 -56 96 -68 96 -6 0 -7 -6 -3
-12z"/>
<path d="M3435 3710 c-3 -5 -1 -10 4 -10 6 0 11 5 11 10 0 6 -2 10 -4 10 -3 0
-8 -4 -11 -10z"/>
<path d="M1480 3685 c0 -8 5 -15 10 -15 6 0 10 7 10 15 0 8 -4 15 -10 15 -5 0
-10 -7 -10 -15z"/>
<path d="M3255 3691 c6 -11 114 -71 127 -71 23 0 2 21 -47 49 -53 30 -92 41
-80 22z"/>
<path d="M2678 3683 c7 -3 16 -2 19 1 4 3 -2 6 -13 5 -11 0 -14 -3 -6 -6z"/>
<path d="M2740 3679 c0 -8 109 -23 116 -16 3 2 -23 9 -56 14 -33 5 -60 6 -60
2z"/>
<path d="M3650 3672 c0 -10 33 -42 43 -42 3 0 4 6 1 13 -6 15 -44 40 -44 29z"/>
<path d="M3515 3660 c-3 -5 -1 -10 4 -10 6 0 11 5 11 10 0 6 -2 10 -4 10 -3 0
-8 -4 -11 -10z"/>
<path d="M2977 3625 c62 -19 152 -53 200 -75 97 -45 103 -39 8 8 -78 39 -218
88 -275 96 -27 4 1 -8 67 -29z"/>
<path d="M1397 3614 c-15 -15 -23 -31 -20 -38 5 -7 9 -4 11 7 2 11 9 16 18 13
9 -3 17 2 21 12 4 9 11 20 17 24 7 5 5 8 -5 8 -9 0 -28 -12 -42 -26z"/>
<path d="M1625 3630 c3 -5 8 -10 11 -10 2 0 4 5 4 10 0 6 -5 10 -11 10 -5 0
-7 -4 -4 -10z"/>
<path d="M2685 3630 c3 -5 8 -10 11 -10 2 0 4 5 4 10 0 6 -5 10 -11 10 -5 0
-7 -4 -4 -10z"/>
<path d="M3410 3632 c0 -8 14 -16 63 -40 4 -2 7 0 7 5 0 8 -52 43 -64 43 -3 0
-6 -4 -6 -8z"/>
<path d="M1537 3595 c26 -37 61 -70 68 -63 6 6 -36 53 -70 78 -18 14 -18 13 2
-15z"/>
<path d="M1800 3604 c0 -9 7 -14 17 -12 25 5 28 28 4 28 -12 0 -21 -6 -21 -16z"/>
<path d="M3570 3613 c0 -14 57 -66 67 -62 5 2 -8 19 -29 38 -21 18 -38 29 -38
24z"/>
<path d="M2868 3603 c6 -2 18 -2 25 0 6 3 1 5 -13 5 -14 0 -19 -2 -12 -5z"/>
<path d="M2321 3590 c0 -8 4 -24 9 -35 5 -13 9 -14 9 -5 0 8 -4 24 -9 35 -5
13 -9 14 -9 5z"/>
<path d="M2920 3596 c0 -3 19 -10 43 -17 78 -20 197 -70 209 -87 21 -28 68
-54 86 -47 11 4 4 12 -29 27 -24 12 -46 26 -47 30 -10 22 -262 112 -262 94z"/>
<path d="M2758 3583 c7 -3 16 -2 19 1 4 3 -2 6 -13 5 -11 0 -14 -3 -6 -6z"/>
<path d="M1490 3565 c7 -8 17 -15 22 -15 6 0 5 7 -2 15 -7 8 -17 15 -22 15 -6
0 -5 -7 2 -15z"/>
<path d="M1335 3543 l-18 -28 27 24 c28 26 31 31 17 31 -5 0 -17 -12 -26 -27z"/>
<path d="M2925 3545 c44 -13 81 -22 83 -21 6 6 -121 46 -142 45 -12 0 15 -11
59 -24z"/>
<path d="M3466 3561 c27 -27 110 -91 116 -91 5 0 8 6 8 13 0 17 -94 87 -117
87 -10 0 -13 -3 -7 -9z"/>
<path d="M2197 3540 c8 -29 25 -37 21 -9 -1 12 -8 24 -15 26 -7 3 -9 -3 -6
-17z"/>
<path d="M2703 3543 c9 -2 25 -2 35 0 9 3 1 5 -18 5 -19 0 -27 -2 -17 -5z"/>
<path d="M3815 3530 c10 -11 23 -20 28 -20 6 0 2 9 -8 20 -10 11 -23 20 -28
20 -6 0 -2 -9 8 -20z"/>
<path d="M1440 3530 c0 -18 69 -100 70 -83 0 7 -9 23 -20 35 -10 13 -26 32
-34 43 -12 15 -15 16 -16 5z"/>
<path d="M1542 3529 c2 -7 10 -15 17 -17 8 -3 12 1 9 9 -2 7 -10 15 -17 17 -8
3 -12 -1 -9 -9z"/>
<path d="M2136 3493 c8 -27 17 -52 19 -58 5 -9 -2 40 -10 75 -2 8 -4 18 -4 23
-1 4 -5 7 -10 7 -5 0 -3 -21 5 -47z"/>
<path d="M2760 3536 c0 -2 16 -6 35 -8 19 -2 35 0 35 4 0 4 -16 8 -35 8 -19 0
-35 -2 -35 -4z"/>
<path d="M2340 3515 c0 -8 4 -15 10 -15 5 0 7 7 4 15 -4 8 -8 15 -10 15 -2 0
-4 -7 -4 -15z"/>
<path d="M2840 3527 c0 -3 46 -20 102 -37 121 -38 218 -84 277 -135 46 -38 81
-60 81 -50 0 8 74 -60 136 -125 70 -73 116 -135 168 -223 37 -62 52 -77 107
-109 69 -40 101 -50 79 -23 -7 8 -16 15 -21 15 -20 0 -129 78 -139 100 -30 66
-127 194 -209 275 -102 101 -197 168 -318 226 -103 49 -263 101 -263 86z"/>
<path d="M3779 3498 c11 -18 28 -35 37 -37 14 -2 11 5 -12 32 -37 45 -53 47
-25 5z"/>
<path d="M2088 3515 c-3 -6 1 -23 8 -40 14 -32 17 -17 5 25 -4 14 -9 20 -13
15z"/>
<path d="M3136 3460 c65 -33 121 -60 124 -60 13 0 -117 73 -171 95 -94 40 -80
29 47 -35z"/>
<path d="M2638 3503 c7 -3 16 -2 19 1 4 3 -2 6 -13 5 -11 0 -14 -3 -6 -6z"/>
<path d="M3270 3506 c0 -2 36 -30 80 -61 111 -77 210 -173 287 -277 59 -80 68
-88 97 -87 26 1 27 2 7 6 -29 6 -30 7 -105 106 -72 95 -187 204 -284 268 -72
48 -82 53 -82 45z"/>
<path d="M2698 3493 c6 -2 18 -2 25 0 6 3 1 5 -13 5 -14 0 -19 -2 -12 -5z"/>
<path d="M3705 3490 c-3 -5 -2 -10 4 -10 5 0 13 5 16 10 3 6 2 10 -4 10 -5 0
-13 -4 -16 -10z"/>
<path d="M1590 3486 c0 -12 24 -56 31 -56 4 0 9 7 13 15 3 8 1 15 -4 15 -5 0
-16 7 -24 16 -9 8 -16 13 -16 10z"/>
<path d="M2210 3487 c0 -6 31 -67 34 -67 8 0 -1 47 -11 58 -11 11 -23 16 -23
9z"/>
<path d="M2512 3474 c-10 -11 -10 -14 1 -14 14 0 28 -43 68 -210 12 -52 26
-99 30 -104 5 -6 54 -4 124 4 93 11 129 11 183 1 82 -15 153 -53 198 -105 36
-42 74 -129 75 -174 0 -26 1 -26 11 -5 15 31 -22 147 -62 196 -38 44 -102 90
-150 106 -47 15 -162 22 -180 11 -9 -5 -19 -5 -27 2 -8 6 -13 7 -13 1 0 -6
-21 -13 -47 -16 -27 -4 -59 -9 -73 -13 -18 -4 -21 -3 -11 4 11 8 11 11 -2 18
-14 8 -87 232 -87 266 0 8 -6 22 -12 30 -11 15 -15 15 -26 2z"/>
<path d="M2783 3483 c9 -2 23 -2 30 0 6 3 -1 5 -18 5 -16 0 -22 -2 -12 -5z"/>
<path d="M1264 3468 c-11 -17 6 -22 22 -7 13 14 13 16 -1 16 -9 0 -18 -4 -21
-9z"/>
<path d="M2271 3457 c17 -32 19 -33 19 -10 0 12 -7 23 -15 27 -13 5 -14 2 -4
-17z"/>
<path d="M2926 3446 c112 -38 200 -80 284 -135 85 -56 84 -55 75 -41 -31 50
-309 184 -425 204 -19 3 10 -9 66 -28z"/>
<path d="M3632 3453 c15 -15 30 -25 33 -22 8 8 -30 49 -46 49 -8 0 -3 -11 13
-27z"/>
<path d="M1355 3450 c-10 -11 -13 -20 -7 -20 6 0 15 7 20 17 9 14 14 12 43
-15 19 -18 41 -32 49 -32 17 1 -58 70 -76 70 -6 0 -19 -9 -29 -20z"/>
<path d="M3880 3464 c0 -7 9 -22 20 -35 25 -31 26 -12 0 21 -11 14 -20 20 -20
14z"/>
<path d="M2643 3453 c9 -2 23 -2 30 0 6 3 -1 5 -18 5 -16 0 -22 -2 -12 -5z"/>
<path d="M2694 3448 c-3 -4 13 -8 35 -8 23 0 41 2 41 4 0 8 -71 12 -76 4z"/>
<path d="M2050 3445 c0 -5 5 -17 10 -25 5 -8 10 -10 10 -5 0 6 -5 17 -10 25
-5 8 -10 11 -10 5z"/>
<path d="M2410 3440 c-18 -12 -2 -12 25 0 13 6 15 9 5 9 -8 0 -22 -4 -30 -9z"/>
<path d="M3280 3443 c0 -5 19 -19 41 -33 71 -43 227 -201 297 -299 62 -87 73
-97 142 -132 41 -21 84 -38 95 -39 11 0 -16 19 -61 43 -101 53 -112 62 -149
117 -61 91 -205 240 -297 308 -58 43 -68 48 -68 35z"/>
<path d="M1240 3430 c0 -5 4 -10 9 -10 6 0 13 5 16 10 3 6 -1 10 -9 10 -9 0
-16 -4 -16 -10z"/>
<path d="M2880 3412 c172 -45 315 -122 397 -212 20 -23 41 -39 46 -37 25 8
166 -176 232 -303 41 -81 52 -94 108 -131 49 -32 68 -39 92 -34 58 10 256 68
251 72 -2 2 -57 -10 -123 -27 -65 -18 -122 -32 -128 -32 -5 -1 -40 18 -77 41
-51 32 -72 54 -91 90 -44 84 -69 125 -96 163 -46 62 -165 197 -176 197 -5 1
-26 15 -45 32 -114 101 -308 190 -447 204 -32 4 -14 -4 57 -23z"/>
<path d="M3847 3410 c14 -17 28 -28 31 -26 7 8 -32 55 -46 56 -6 0 0 -14 15
-30z"/>
<path d="M2312 3411 c-10 -6 -7 -10 12 -13 18 -4 26 -1 26 8 0 16 -18 18 -38
5z"/>
<path d="M2688 3403 c7 -3 16 -2 19 1 4 3 -2 6 -13 5 -11 0 -14 -3 -6 -6z"/>
<path d="M3660 3398 c1 -22 86 -112 99 -104 7 5 -5 26 -36 62 -48 54 -63 64
-63 42z"/>
<path d="M3790 3404 c0 -11 92 -135 97 -130 6 5 -28 66 -37 66 -3 0 -14 16
-24 35 -17 31 -36 46 -36 29z"/>
<path d="M1370 3371 c19 -16 37 -28 39 -25 5 5 -24 29 -54 45 -11 6 -4 -3 15
-20z"/>
<path d="M2179 3392 c11 -8 2 -14 -35 -26 -32 -10 -37 -13 -14 -9 19 4 47 6
63 5 18 -1 27 4 27 13 0 8 -4 15 -9 15 -5 0 -18 3 -28 6 -14 5 -15 4 -4 -4z"/>
<path d="M2748 3393 c7 -3 16 -2 19 1 4 3 -2 6 -13 5 -11 0 -14 -3 -6 -6z"/>
<path d="M1319 3390 c0 -3 -2 -18 -4 -34 -4 -29 -4 -29 12 -7 11 17 12 26 4
34 -6 6 -11 9 -12 7z"/>
<path d="M2810 3380 c14 -4 34 -8 45 -9 16 -1 17 1 5 9 -8 5 -28 9 -45 9 -29
-1 -29 -1 -5 -9z"/>
<path d="M2346 3372 c-3 -6 -1 -14 5 -17 14 -9 20 -2 10 14 -6 8 -11 9 -15 3z"/>
<path d="M3930 3373 c0 -5 11 -20 25 -33 14 -13 25 -19 25 -13 0 5 -11 20 -25
33 -14 13 -25 19 -25 13z"/>
<path d="M2628 3363 c6 -2 18 -2 25 0 6 3 1 5 -13 5 -14 0 -19 -2 -12 -5z"/>
<path d="M2968 3335 c112 -41 211 -101 323 -196 77 -66 61 -38 -20 35 -31 28
-45 38 -101 76 -76 50 -240 121 -278 120 -9 -1 25 -16 76 -35z"/>
<path d="M2799 3340 c157 -37 303 -105 409 -190 34 -28 64 -50 67 -50 34 0
-89 96 -195 153 -109 58 -206 88 -319 102 -27 3 -11 -3 38 -15z"/>
<path d="M3431 3249 c68 -68 139 -149 174 -201 32 -48 76 -100 97 -114 21 -15
38 -33 38 -40 0 -7 8 -13 18 -13 9 0 33 -3 52 -5 19 -3 26 -3 16 0 -11 4 -25
12 -32 18 -6 7 -38 30 -70 51 -44 28 -71 56 -104 108 -46 72 -236 274 -280
297 -13 7 28 -38 91 -101z"/>
<path d="M3897 3343 c5 -22 43 -63 43 -47 0 5 -11 23 -25 39 -20 25 -23 27
-18 8z"/>
<path d="M1170 3335 c-7 -8 -8 -15 -2 -15 5 0 15 7 22 15 7 8 8 15 2 15 -5 0
-15 -7 -22 -15z"/>
<path d="M2068 3343 c7 -3 16 -2 19 1 4 3 -2 6 -13 5 -11 0 -14 -3 -6 -6z"/>
<path d="M1335 3330 c-4 -6 -5 -14 -2 -16 7 -8 57 7 57 17 0 13 -17 11 -26 -2
-5 -8 -9 -8 -14 1 -6 9 -9 9 -15 0z"/>
<path d="M2200 3332 c0 -5 9 -12 21 -15 13 -3 19 -1 16 6 -5 15 -37 22 -37 9z"/>
<path d="M2015 3321 c-3 -5 -1 -12 5 -16 5 -3 10 1 10 9 0 18 -6 21 -15 7z"/>
<path d="M2360 3320 c0 -5 5 -10 11 -10 5 0 7 5 4 10 -3 6 -8 10 -11 10 -2 0
-4 -4 -4 -10z"/>
<path d="M2620 3320 c0 -5 5 -10 11 -10 5 0 7 5 4 10 -3 6 -8 10 -11 10 -2 0
-4 -4 -4 -10z"/>
<path d="M2660 3320 c0 -5 5 -10 11 -10 5 0 7 5 4 10 -3 6 -8 10 -11 10 -2 0
-4 -4 -4 -10z"/>
<path d="M2714 3311 c3 -5 41 -17 83 -26 95 -21 226 -74 299 -121 85 -53 227
-178 258 -224 18 -27 26 -51 23 -67 -2 -13 -2 -21 1 -18 10 10 42 -28 42 -51
0 -13 5 -26 10 -29 19 -12 10 -40 -17 -58 -27 -18 -27 -18 -4 -13 14 3 31 0
38 -6 18 -15 16 -45 -4 -52 -14 -6 -11 -10 14 -24 17 -9 62 -38 99 -64 38 -27
78 -48 89 -48 13 0 -5 17 -53 52 -61 43 -74 58 -83 92 -18 68 -78 197 -124
266 -48 72 -164 188 -235 235 -102 67 -234 126 -322 144 -96 19 -120 22 -114
12z"/>
<path d="M1250 3302 c0 -10 99 -76 105 -70 5 4 -90 78 -100 78 -3 0 -5 -4 -5
-8z"/>
<path d="M1396 3283 c-6 -14 -5 -15 5 -6 7 7 10 15 7 18 -3 3 -9 -2 -12 -12z"/>
<path d="M2215 3290 c-3 -5 -5 -10 -3 -11 28 -7 38 -5 38 7 0 16 -26 19 -35 4z"/>
<path d="M3780 3293 c1 -11 37 -53 45 -53 3 0 -2 14 -12 30 -16 28 -33 40 -33
23z"/>
<path d="M4000 3292 c0 -5 7 -15 15 -22 8 -7 15 -8 15 -2 0 5 -7 15 -15 22 -8
7 -15 8 -15 2z"/>
<path d="M1420 3281 c0 -5 7 -11 15 -15 8 -3 12 -12 9 -21 -4 -10 0 -15 13
-15 41 0 35 19 -15 48 -12 7 -22 8 -22 3z"/>
<path d="M2031 3274 c0 -11 3 -14 6 -6 3 7 2 16 -1 19 -3 4 -6 -2 -5 -13z"/>
<path d="M2370 3281 c0 -6 5 -13 10 -16 6 -3 10 1 10 9 0 9 -4 16 -10 16 -5 0
-10 -4 -10 -9z"/>
<path d="M2630 3269 c0 -12 38 -31 44 -21 2 4 -7 12 -20 19 -13 6 -24 7 -24 2z"/>
<path d="M3960 3267 c0 -14 31 -47 43 -47 3 0 -2 13 -11 30 -18 32 -32 39 -32
17z"/>
<path d="M1270 3240 c14 -11 32 -20 40 -20 8 0 0 9 -18 20 -41 25 -55 25 -22
0z"/>
<path d="M2233 3253 c-20 -8 -15 -23 7 -23 11 0 20 7 20 15 0 15 -6 17 -27 8z"/>
<path d="M2040 3230 c0 -11 4 -20 9 -20 6 0 9 9 8 20 -1 11 -5 20 -9 20 -4 0
-8 -9 -8 -20z"/>
<path d="M2386 3241 c-4 -7 -5 -15 -2 -18 9 -9 19 4 14 18 -4 11 -6 11 -12 0z"/>
<path d="M2692 3230 c0 -14 2 -19 5 -12 2 6 2 18 0 25 -3 6 -5 1 -5 -13z"/>
<path d="M1215 3230 c3 -5 1 -18 -5 -29 -8 -16 -6 -21 11 -26 13 -4 27 -1 38
9 10 9 21 13 24 9 4 -3 7 -1 7 5 0 6 -13 18 -30 27 -33 17 -54 20 -45 5z"/>
<path d="M2645 3221 c-3 -5 -1 -12 5 -16 5 -3 10 1 10 9 0 18 -6 21 -15 7z"/>
<path d="M2247 3213 c-22 -6 -18 -25 6 -29 11 -1 17 5 17 17 0 10 -1 18 -2 18
-2 -1 -11 -3 -21 -6z"/>
<path d="M2390 3195 c-10 -12 -10 -15 4 -15 9 0 16 7 16 15 0 8 -2 15 -4 15
-2 0 -9 -7 -16 -15z"/>
<path d="M3410 3143 c75 -82 136 -166 181 -251 27 -50 45 -70 94 -102 63 -41
112 -56 81 -25 -8 8 -17 15 -20 15 -4 0 -31 16 -61 36 -48 32 -87 82 -125 159
-20 42 -186 235 -202 235 -5 0 18 -30 52 -67z"/>
<path d="M3826 3178 c38 -74 66 -111 74 -98 4 7 -6 33 -26 63 -19 28 -34 55
-34 59 0 5 -7 8 -15 8 -14 0 -13 -4 1 -32z"/>
<path d="M2050 3185 c0 -8 5 -15 10 -15 6 0 10 7 10 15 0 8 -4 15 -10 15 -5 0
-10 -7 -10 -15z"/>
<path d="M3965 3180 c-3 -5 -2 -10 4 -10 5 0 13 5 16 10 3 6 2 10 -4 10 -5 0
-13 -4 -16 -10z"/>
<path d="M1160 3169 c0 -6 -4 -8 -9 -5 -9 6 -60 -99 -91 -188 -20 -59 -20 -59
0 -41 11 10 20 26 20 36 0 19 81 56 99 44 6 -3 11 -4 11 -1 0 10 -61 37 -70
31 -6 -3 -10 1 -10 11 0 14 7 16 37 11 39 -7 86 -35 86 -52 0 -6 -18 -18 -39
-29 -34 -17 -37 -20 -19 -26 30 -12 88 48 89 92 1 18 5 38 9 44 4 7 -16 25
-53 47 -33 20 -60 32 -60 26z m50 -55 c7 -7 9 -22 6 -31 -5 -13 -9 -14 -15 -5
-4 7 -14 12 -22 10 -7 -2 -15 6 -17 17 -3 25 30 31 48 9z"/>
<path d="M2242 3158 c7 -19 38 -22 38 -4 0 10 -9 16 -21 16 -12 0 -19 -5 -17
-12z"/>
<path d="M2410 3162 c0 -7 -10 -17 -22 -22 -21 -8 -20 -9 10 -9 34 -1 38 4 22
29 -7 11 -10 11 -10 2z"/>
<path d="M2016 3093 c-67 -71 -68 -83 -1 -22 l44 41 7 -26 c3 -15 15 -31 25
-37 11 -5 19 -8 19 -7 0 2 -8 28 -18 58 l-17 55 -59 -62z"/>
<path d="M2250 3122 c0 -9 34 -68 42 -73 17 -11 152 26 168 46 6 7 -11 5 -43
-6 -59 -21 -87 -24 -87 -9 0 6 -6 10 -14 10 -7 0 -16 9 -19 19 -3 13 -13 19
-26 18 -12 -1 -21 -3 -21 -5z"/>
<path d="M2338 3123 c7 -3 16 -2 19 1 4 3 -2 6 -13 5 -11 0 -14 -3 -6 -6z"/>
<path d="M1925 3090 c-3 -5 -2 -10 4 -10 5 0 13 5 16 10 3 6 2 10 -4 10 -5 0
-13 -4 -16 -10z"/>
<path d="M1470 3050 c-11 -22 -18 -40 -15 -40 2 0 14 18 25 40 11 22 18 40 15
40 -2 0 -14 -18 -25 -40z"/>
<path d="M3297 3056 c15 -19 33 -35 38 -36 29 -3 131 -178 174 -296 26 -74 32
-82 85 -118 50 -34 61 -37 94 -30 25 5 31 9 18 12 -26 6 -142 70 -154 85 -5 7
-25 49 -45 95 -47 110 -109 211 -167 272 -54 56 -87 68 -43 16z"/>
<path d="M3916 3081 c-3 -5 1 -14 9 -21 12 -10 15 -10 15 3 0 19 -16 31 -24
18z"/>
<path d="M1757 3066 c-6 -15 29 -15 43 0 5 5 0 10 -15 10 -13 1 -26 -4 -28
-10z"/>
<path d="M3380 3050 c0 -5 16 -31 37 -57 20 -27 60 -97 88 -156 29 -59 61
-117 71 -128 24 -26 117 -79 140 -79 17 0 -71 71 -123 99 -13 6 -40 47 -62 94
-35 73 -137 237 -147 237 -2 0 -4 -4 -4 -10z"/>
<path d="M1784 3028 l-19 -23 23 19 c21 18 27 26 19 26 -2 0 -12 -10 -23 -22z"/>
<path d="M1577 2952 c-256 -495 -144 -1065 282 -1438 191 -168 494 -284 740
-284 63 0 91 -4 91 -12 0 -6 2 -9 5 -6 7 7 -15 98 -24 98 -4 0 -8 -12 -9 -26
-3 -42 -11 -46 -66 -39 -28 3 -69 8 -91 11 -44 4 -78 10 -112 18 -13 4 -31 8
-41 10 -127 28 -371 142 -368 171 0 6 -9 14 -21 20 -13 5 -23 13 -23 17 0 5
-8 8 -18 8 -25 0 -164 136 -231 225 -63 84 -141 240 -175 350 -42 133 -53 226
-51 408 2 165 30 279 108 440 30 62 54 113 52 115 -1 2 -23 -37 -48 -86z"/>
<path d="M1651 3031 c-9 -6 -9 -10 -2 -12 7 -3 -4 -33 -28 -79 -91 -174 -131
-335 -132 -528 0 -234 59 -432 187 -630 63 -97 204 -248 239 -254 17 -4 0 18
-68 86 -78 77 -122 133 -202 261 -10 17 -8 26 19 67 35 54 31 52 151 83 109
29 175 38 175 24 0 -6 10 1 23 14 12 13 28 22 35 19 10 -3 8 -8 -5 -18 -17
-12 -16 -13 5 -7 15 4 22 13 22 29 0 24 -16 41 -22 23 -2 -5 -28 -13 -58 -16
-30 -3 -57 -8 -60 -13 -8 -11 -79 -32 -89 -26 -5 4 -11 1 -13 -5 -2 -7 -18
-12 -36 -13 -18 0 -32 -4 -32 -7 0 -16 -83 2 -138 30 -57 29 -61 33 -75 83
-54 191 -53 436 4 608 24 75 84 207 103 230 15 17 28 60 18 60 -4 0 -13 -4
-21 -9z"/>
<path d="M2090 3020 c-8 -5 -10 -10 -5 -10 6 0 17 5 25 10 8 5 11 10 5 10 -5
0 -17 -5 -25 -10z"/>
<path d="M2048 3003 c7 -3 16 -2 19 1 4 3 -2 6 -13 5 -11 0 -14 -3 -6 -6z"/>
<path d="M2075 2996 c-73 -23 -97 -27 -90 -16 3 5 -1 10 -9 10 -9 0 -16 -7
-16 -16 0 -11 -6 -15 -20 -11 -12 3 -18 1 -14 -5 5 -7 -2 -9 -19 -6 -15 3 -25
2 -22 -2 2 -3 -27 -15 -66 -24 -38 -10 -69 -22 -69 -25 0 -4 9 -35 21 -69 24
-71 19 -70 136 -26 64 24 133 40 121 29 -3 -4 1 -14 11 -24 9 -9 23 -44 30
-76 31 -137 97 -397 167 -658 42 -153 73 -285 70 -292 -6 -16 -75 -37 -123
-39 -17 -1 -29 -4 -26 -8 2 -5 -3 -8 -12 -8 -14 0 -16 -10 -10 -82 4 -46 8
-88 10 -94 4 -15 79 -3 248 37 72 18 133 27 137 23 5 -5 25 -67 45 -139 20
-71 38 -135 40 -141 2 -8 23 -6 71 7 38 10 76 17 85 14 15 -5 16 -1 8 36 -6
23 -12 46 -15 51 -3 5 -7 19 -9 31 -2 12 -12 54 -23 94 -11 40 -17 75 -13 78
3 4 0 5 -8 3 -7 -2 -15 2 -18 9 -4 11 109 53 142 53 23 0 34 -24 69 -154 19
-70 37 -130 40 -133 2 -3 35 2 72 10 67 16 90 14 79 -4 -4 -5 -2 -9 4 -9 10 0
6 68 -6 100 -3 8 -7 26 -9 39 -1 13 -10 38 -18 55 -8 17 -17 52 -21 78 -5 34
-11 45 -21 41 -17 -6 -19 13 -1 24 6 4 48 24 92 43 173 78 293 179 341 285 13
31 24 62 24 70 0 8 4 15 9 15 4 0 7 16 6 35 -1 19 2 35 5 35 14 0 -12 137 -36
188 -29 63 -96 131 -157 160 -60 28 -173 53 -204 46 -21 -6 -24 -4 -19 12 9
29 -25 46 -64 32 -17 -6 -47 -8 -66 -5 -20 4 -32 2 -29 -4 8 -12 -11 -12 -35
1 -15 8 -18 18 -14 43 5 29 3 28 -25 -19 -35 -60 -110 -130 -166 -155 -42 -18
-138 -38 -100 -20 19 9 19 10 -2 10 -31 1 -113 -21 -113 -31 0 -4 12 -3 26 2
14 6 33 10 42 10 15 -1 15 -2 2 -9 -20 -12 -97 -26 -87 -16 4 5 0 20 -10 34
-9 14 -20 42 -24 61 -4 19 -13 53 -19 75 -6 22 -12 47 -14 56 -3 9 -12 38 -20
64 -9 26 -17 58 -18 71 -2 21 -32 43 -43 32 -2 -2 -5 -29 -6 -61 -2 -52 -4
-57 -23 -51 -47 15 -76 31 -69 38 5 4 3 6 -2 5 -20 -6 -75 13 -87 29 -12 15
-21 19 -63 25 -5 1 -15 9 -22 17 -7 8 -13 11 -13 6 0 -5 -9 -1 -20 9 -22 20
-28 8 -7 -15 10 -12 9 -12 -4 -2 -22 17 -32 53 -12 45 8 -3 13 0 11 7 -2 8 24
23 67 38 101 35 118 58 20 28z m0 -156 c3 -5 1 -10 -4 -10 -6 0 -11 5 -11 10
0 6 2 10 4 10 3 0 8 -4 11 -10z m978 -175 c-3 -9 -8 -14 -10 -11 -3 3 -2 9 2
15 9 16 15 13 8 -4z m-123 -31 c0 -2 -7 -4 -15 -4 -8 0 -15 4 -15 10 0 5 7 7
15 4 8 -4 15 -8 15 -10z m60 -232 c98 -42 143 -102 144 -192 1 -99 -79 -206
-203 -273 -71 -39 -324 -107 -298 -80 4 3 -1 15 -10 26 -10 10 -16 20 -14 21
4 2 -17 83 -34 127 -8 20 -12 39 -9 41 2 3 -1 18 -7 34 -15 35 -12 24 -29 106
-10 49 -19 69 -32 74 -38 12 -16 35 57 60 28 9 68 24 90 34 140 62 239 68 345
22z"/>
<path d="M2791 2368 c-75 -11 -78 -20 -5 -14 101 9 168 -2 204 -35 28 -26 31
-34 29 -81 -1 -29 2 -69 6 -89 6 -30 3 -43 -16 -69 -25 -33 -145 -97 -226
-121 -24 -7 -43 -17 -43 -22 0 -16 81 2 147 33 79 36 143 96 179 165 16 30 32
55 36 55 4 0 3 14 -2 30 -5 17 -7 30 -4 30 7 0 -29 53 -46 68 -53 46 -155 65
-259 50z"/>
<path d="M2801 2332 c-14 -2 -35 -11 -48 -19 -13 -8 -32 -13 -43 -10 -11 3
-20 1 -20 -4 0 -5 -3 -8 -7 -7 -5 1 -21 -4 -37 -11 -29 -12 -70 -6 -61 8 2 5
-7 6 -20 3 -14 -2 -25 -8 -25 -12 0 -5 8 -6 18 -3 12 3 19 -1 19 -11 0 -12 -6
-14 -20 -10 -14 4 -18 2 -15 -7 3 -8 13 -14 24 -14 10 0 20 -8 22 -17 2 -10
-1 -18 -7 -18 -6 0 -11 5 -11 11 0 5 -4 8 -9 5 -5 -4 -2 -28 7 -56 l16 -50 40
7 c22 3 49 15 60 25 20 18 20 18 -3 18 -15 0 -21 5 -19 18 2 11 -4 17 -17 17
-15 0 -19 6 -17 25 2 15 0 20 -5 13 -6 -8 -14 -9 -23 -3 -8 5 -12 12 -8 15 4
4 60 20 125 37 97 25 125 28 156 20 21 -5 40 -6 43 -1 3 5 14 9 25 9 24 0 25
17 2 24 -20 5 -104 4 -142 -2z"/>
<path d="M2820 2279 c0 -6 -7 -9 -15 -5 -16 6 -21 -9 -6 -18 14 -9 24 -77 12
-89 -5 -5 -7 -16 -4 -23 3 -8 3 -14 0 -14 -2 0 -41 -9 -86 -20 -45 -12 -85
-18 -90 -16 -4 3 -8 -1 -8 -9 0 -18 1 -18 59 -1 25 8 48 12 51 10 3 -3 30 2
61 11 59 17 86 11 86 -21 0 -15 -50 -44 -77 -44 -10 -1 -34 -9 -53 -20 -55
-29 -14 -36 64 -10 51 17 65 26 70 45 4 14 11 25 16 25 6 0 6 10 -1 26 -5 15
-10 46 -11 70 -2 28 -7 44 -15 44 -12 0 -18 13 -14 34 1 5 -5 6 -14 3 -9 -4
-15 -1 -15 7 0 8 6 17 13 19 7 3 5 6 -5 6 -10 1 -18 -4 -18 -10z"/>
<path d="M2915 2217 c3 -71 14 -135 25 -142 4 -2 19 9 34 24 26 27 27 33 20
73 -5 23 -8 49 -7 56 0 6 -8 12 -18 12 -12 0 -19 7 -19 18 0 10 -8 18 -19 19
-17 1 -18 -5 -16 -60z"/>
<path d="M2714 2248 c-20 -9 -21 -12 -8 -37 8 -14 14 -34 14 -43 0 -21 27 -23
53 -4 21 16 23 40 2 32 -9 -3 -15 0 -15 8 0 8 -10 16 -22 19 -18 5 -19 8 -8
21 14 18 13 19 -16 4z"/>
<path d="M2590 2075 c0 -8 5 -15 10 -15 6 0 10 7 10 15 0 8 -4 15 -10 15 -5 0
-10 -7 -10 -15z"/>
<path d="M2810 2076 c0 -2 7 -7 16 -10 8 -3 12 -2 9 4 -6 10 -25 14 -25 6z"/>
<path d="M2701 2059 c-13 -5 -32 -7 -41 -4 -11 4 -20 -1 -24 -12 -6 -15 -9
-15 -16 -3 -11 18 -25 7 -17 -14 5 -12 15 -12 68 5 35 11 65 21 67 23 9 10
-16 13 -37 5z"/>
<path d="M2759 2060 c-20 -13 -5 -22 21 -12 18 7 20 10 8 14 -8 4 -21 2 -29
-2z"/>
<path d="M2687 2003 c-4 -3 -7 -11 -7 -17 0 -6 5 -5 12 2 6 6 9 14 7 17 -3 3
-9 2 -12 -2z"/>
<path d="M2612 1989 c3 -8 12 -13 22 -11 9 2 16 -4 16 -12 0 -10 -6 -13 -16
-9 -12 4 -15 2 -12 -8 3 -8 12 -13 21 -13 9 1 19 -7 22 -17 8 -23 18 -24 35
-4 16 20 5 45 -20 45 -11 0 -20 7 -20 15 0 8 -4 15 -9 15 -5 0 -17 3 -27 7
-12 4 -15 2 -12 -8z"/>
<path d="M2840 1920 c-8 -5 -10 -10 -5 -10 6 0 17 5 25 10 8 5 11 10 5 10 -5
0 -17 -5 -25 -10z"/>
<path d="M2640 1910 c0 -5 5 -10 11 -10 5 0 7 5 4 10 -3 6 -8 10 -11 10 -2 0
-4 -4 -4 -10z"/>
<path d="M2673 1883 c-13 -2 -23 -8 -23 -13 0 -5 14 -5 31 0 55 16 50 24 -8
13z"/>
<path d="M1492 2988 c-17 -23 -69 -151 -90 -223 -44 -155 -47 -177 -46 -370 1
-171 3 -200 26 -286 134 -499 501 -856 988 -960 135 -29 352 -31 483 -5 330
64 609 239 806 505 34 46 66 92 72 102 22 41 -3 14 -72 -78 -173 -232 -393
-392 -655 -478 -105 -34 -226 -55 -324 -54 -43 0 -84 -2 -90 -6 -5 -3 -10 -2
-10 3 0 5 -19 9 -42 9 -24 -1 -59 3 -78 7 -19 3 -46 9 -60 11 -14 2 -40 9 -58
14 -18 5 -35 10 -37 10 -3 1 -7 2 -10 2 -3 1 -8 2 -12 3 -5 1 -25 10 -47 19
-21 9 -42 17 -46 17 -4 0 -37 16 -74 36 -37 19 -74 33 -83 30 -11 -4 -13 -1
-8 14 5 16 2 20 -18 20 -16 0 -26 7 -30 20 -3 11 -13 20 -22 20 -17 0 -68 37
-145 105 -144 128 -282 317 -346 475 -24 59 -61 185 -69 235 -8 54 -16 114
-20 150 -2 22 -7 57 -11 78 -4 25 -2 37 5 37 8 0 9 5 3 15 -11 21 1 129 28
240 27 113 90 270 110 271 32 3 34 5 20 14 -20 13 -26 12 -38 -2z"/>
<path d="M1007 2977 c-4 -10 -7 -26 -7 -35 1 -15 2 -15 11 1 6 10 9 25 7 35
-3 16 -4 15 -11 -1z"/>
<path d="M3240 2986 c0 -3 4 -16 10 -30 9 -25 40 -37 40 -15 0 5 5 7 10 4 6
-3 10 -1 10 4 0 6 -6 11 -14 11 -7 0 -19 7 -26 15 -12 14 -30 21 -30 11z"/>
<path d="M1092 2958 c2 -6 26 -19 53 -29 60 -23 60 -23 41 -4 -8 8 -21 15 -30
15 -8 0 -17 4 -20 9 -8 13 -48 21 -44 9z"/>
<path d="M4150 2966 c0 -2 9 -6 20 -9 11 -3 18 -1 14 4 -5 9 -34 13 -34 5z"/>
<path d="M3898 2953 c7 -3 16 -2 19 1 4 3 -2 6 -13 5 -11 0 -14 -3 -6 -6z"/>
<path d="M1800 2940 c-13 -8 -12 -10 3 -10 9 0 17 5 17 10 0 12 -1 12 -20 0z"/>
<path d="M2610 2931 c0 -5 17 -12 38 -16 20 -4 59 -16 85 -27 38 -17 53 -30
71 -66 21 -41 24 -44 30 -24 10 31 -18 83 -60 110 -24 16 -55 24 -100 27 -35
2 -64 0 -64 -4z"/>
<path d="M1125 2900 c27 -12 43 -12 25 0 -8 5 -22 9 -30 9 -10 0 -8 -3 5 -9z"/>
<path d="M1692 2893 c-17 -30 -15 -37 4 -19 8 9 14 22 11 29 -2 7 -8 4 -15
-10z"/>
<path d="M3260 2871 c0 -21 6 -32 20 -36 43 -14 55 23 15 49 -33 22 -35 21
-35 -13z"/>
<path d="M3888 2893 c7 -3 16 -2 19 1 4 3 -2 6 -13 5 -11 0 -14 -3 -6 -6z"/>
<path d="M1067 2863 c-3 -16 0 -31 6 -35 20 -13 47 -9 47 7 0 8 7 15 15 15 24
0 17 20 -11 30 -40 16 -51 12 -57 -17z"/>
<path d="M2530 2877 c-23 -7 -29 -12 -18 -14 9 -2 29 3 45 11 32 18 23 19 -27
3z"/>
<path d="M2625 2871 c17 -11 41 -21 55 -21 22 0 23 2 9 15 -8 9 -33 18 -55 21
l-39 6 30 -21z"/>
<path d="M2386 2871 c-4 -5 3 -7 14 -4 23 6 26 13 6 13 -8 0 -17 -4 -20 -9z"/>
<path d="M4170 2870 c-11 -7 -4 -10 25 -9 31 0 36 2 20 9 -26 11 -28 11 -45 0z"/>
<path d="M1692 2787 c-12 -38 -21 -72 -18 -74 2 -2 12 18 21 46 9 28 21 51 26
51 11 0 12 37 2 43 -5 3 -18 -27 -31 -66z"/>
<path d="M2415 2849 c-4 -5 3 -9 14 -9 26 0 35 15 11 17 -11 1 -22 -2 -25 -8z"/>
<path d="M1160 2797 c-15 -66 -7 -86 14 -35 10 22 12 45 8 63 -7 26 -9 24 -22
-28z"/>
<path d="M2544 2818 c8 -38 26 -52 44 -34 11 11 9 18 -11 40 -32 34 -41 33
-33 -6z"/>
<path d="M3999 2843 c-1 -4 -1 -11 -1 -14 1 -3 -46 -19 -104 -34 -57 -15 -103
-30 -100 -32 2 -2 51 8 110 24 97 25 130 43 106 58 -6 4 -11 3 -11 -2z"/>
<path d="M2380 2830 c0 -5 7 -10 16 -10 8 0 12 5 9 10 -3 6 -10 10 -16 10 -5
0 -9 -4 -9 -10z"/>
<path d="M1642 2783 c-54 -129 -81 -329 -62 -478 14 -111 23 -130 84 -174 l49
-35 121 31 c66 17 123 29 125 27 10 -9 -25 -35 -44 -32 -12 3 -27 -1 -33 -9
-7 -7 -24 -14 -37 -14 -30 -2 -32 -2 -70 -18 -39 -16 -67 -8 -132 40 -57 43
-66 57 -78 129 -10 59 -12 312 -3 370 6 35 5 40 -3 20 -6 -14 -15 -73 -21
-132 -13 -118 -2 -258 27 -354 14 -47 20 -54 75 -83 l59 -32 108 31 c159 46
173 52 173 72 0 17 37 44 47 34 3 -3 -2 -8 -11 -12 -23 -9 -20 -24 7 -24 18 0
22 6 24 35 1 28 -2 35 -17 35 -10 0 -21 -4 -25 -9 -3 -6 -15 -8 -26 -6 -23 5
-69 -14 -69 -28 0 -5 -6 -7 -14 -4 -8 3 -16 3 -18 -1 -4 -11 -118 -41 -118
-32 0 4 -10 10 -22 14 -35 9 -121 78 -125 101 -37 178 -22 393 37 531 11 26
19 49 17 51 -3 2 -13 -18 -25 -44z"/>
<path d="M1013 2808 c-6 -7 -16 -42 -22 -78 -7 -36 -15 -76 -18 -90 -2 -14 -1
-22 3 -17 4 4 15 42 23 85 14 68 19 77 40 80 33 5 51 -15 29 -32 -23 -17 -23
-42 -1 -50 15 -6 32 8 33 26 0 4 7 5 15 2 8 -4 15 -1 15 5 0 10 -14 15 -32 12
-5 0 -8 5 -8 13 0 9 8 12 25 8 15 -2 25 0 25 7 0 6 -3 10 -7 10 -18 -4 -93 14
-93 22 0 13 -16 11 -27 -3z"/>
<path d="M2453 2799 c4 -13 7 -30 7 -36 0 -18 25 -16 40 2 10 12 8 16 -11 24
-13 4 -23 12 -21 17 2 5 -2 10 -9 13 -8 2 -10 -4 -6 -20z"/>
<path d="M2667 2813 c-4 -3 0 -14 9 -24 9 -10 14 -24 11 -31 -2 -7 6 -21 19
-31 24 -18 24 -18 24 13 0 19 -9 40 -25 55 -26 27 -28 28 -38 18z"/>
<path d="M3240 2794 c0 -11 -11 -43 -25 -72 -14 -30 -25 -56 -25 -58 0 -2 17
-4 38 -4 53 0 81 -10 87 -30 3 -9 23 -25 45 -35 92 -42 150 -137 170 -283 18
-138 -34 -295 -131 -392 -49 -49 -195 -146 -236 -156 -14 -4 -23 -14 -23 -25
0 -10 1 -19 3 -19 1 0 27 7 57 15 30 8 67 15 82 15 69 0 217 240 267 433 18
70 51 140 97 204 l15 21 -47 -14 c-59 -17 -65 -17 -58 0 3 9 -3 17 -15 21 -42
13 -16 41 49 51 52 9 53 8 -102 95 -79 45 -113 59 -129 54 -15 -5 -19 -4 -15
4 4 6 13 11 21 11 32 0 21 16 -13 18 -20 2 -41 7 -46 12 -9 9 -2 13 42 26 6 2
12 11 12 21 -1 17 -1 17 -11 1 -5 -10 -15 -18 -21 -18 -9 0 -9 3 0 12 19 19
14 28 -18 28 -38 0 -39 19 -1 26 17 4 31 14 34 25 4 16 -1 19 -33 19 -21 0
-45 3 -54 6 -11 4 -16 0 -16 -12z"/>
<path d="M2400 2786 c0 -25 12 -46 26 -46 17 0 18 14 4 41 -12 22 -30 25 -30
5z"/>
<path d="M1730 2775 c0 -11 -11 -55 -25 -98 -14 -43 -24 -90 -24 -105 1 -20 2
-22 6 -7 14 66 47 165 54 165 5 0 9 -4 9 -10 0 -5 7 -10 16 -10 14 0 15 -3 3
-17 -7 -10 -1 -7 14 6 15 14 27 25 27 26 0 0 -12 1 -27 0 -22 0 -29 5 -31 25
-5 32 -22 51 -22 25z"/>
<path d="M1995 2771 c3 -6 -10 -13 -30 -17 -19 -3 -38 -10 -41 -16 -3 -5 5 -6
20 -2 51 13 61 10 62 -16 3 -47 46 -185 62 -197 10 -9 11 -13 3 -13 -7 0 -9
-4 -6 -10 12 -20 -42 -21 -78 -1 -67 37 -107 66 -107 76 0 6 7 37 15 69 9 33
14 61 11 63 -6 7 -45 -117 -52 -167 l-6 -46 49 -23 c47 -21 54 -22 109 -11 32
7 65 13 72 13 15 0 16 27 0 64 -14 34 -15 40 -23 78 -3 17 -9 39 -12 50 -4 11
-8 22 -8 25 -12 50 -28 90 -36 90 -6 0 -8 -4 -4 -9z"/>
<path d="M2760 2749 c0 -5 5 -7 10 -4 6 3 10 8 10 11 0 2 -4 4 -10 4 -5 0 -10
-5 -10 -11z"/>
<path d="M1869 2727 c-18 -25 -43 -96 -36 -103 2 -2 10 16 17 41 7 25 21 50
31 56 11 5 19 14 19 19 0 17 -14 11 -31 -13z"/>
<path d="M4025 2731 c3 -5 -2 -12 -10 -14 -12 -4 -12 -5 1 -3 19 1 32 26 14
26 -6 0 -9 -4 -5 -9z"/>
<path d="M1825 2720 c-3 -5 -1 -10 4 -10 6 0 11 5 11 10 0 6 -2 10 -4 10 -3 0
-8 -4 -11 -10z"/>
<path d="M1960 2706 c0 -8 5 -18 10 -21 6 -3 10 3 10 14 0 12 -4 21 -10 21 -5
0 -10 -6 -10 -14z"/>
<path d="M2450 2709 c0 -6 -7 -9 -15 -5 -8 3 -15 2 -15 -3 0 -5 9 -11 20 -14
11 -3 20 -13 20 -22 0 -13 6 -15 33 -10 35 8 54 21 44 31 -4 4 -14 1 -22 -6
-13 -11 -19 -10 -35 7 -10 12 -16 24 -13 27 4 3 1 6 -5 6 -7 0 -12 -5 -12 -11z"/>
<path d="M3968 2703 c7 -3 16 -2 19 1 4 3 -2 6 -13 5 -11 0 -14 -3 -6 -6z"/>
<path d="M1010 2691 c0 -5 5 -13 10 -16 6 -3 10 -15 10 -26 0 -14 7 -19 29
-19 16 0 36 -3 44 -6 8 -3 17 2 21 13 4 10 2 19 -3 21 -6 2 -9 7 -7 11 3 4
-11 8 -31 9 -20 2 -44 7 -54 13 -12 6 -19 6 -19 0z"/>
<path d="M1651 2664 c-21 -84 -31 -162 -31 -253 0 -148 5 -167 58 -207 25 -19
57 -37 70 -41 39 -9 178 29 167 46 -3 6 -17 4 -33 -5 -15 -7 -35 -11 -44 -8
-10 3 -18 0 -18 -6 0 -7 -8 -9 -22 -4 -38 11 -136 75 -143 92 -15 39 -15 269
0 342 16 77 13 109 -4 44z"/>
<path d="M2655 2690 c-3 -5 -1 -10 4 -10 6 0 11 5 11 10 0 6 -2 10 -4 10 -3 0
-8 -4 -11 -10z"/>
<path d="M3085 2690 c-3 -5 -1 -10 4 -10 6 0 11 5 11 10 0 6 -2 10 -4 10 -3 0
-8 -4 -11 -10z"/>
<path d="M2574 2674 c12 -12 20 -13 33 -4 16 10 16 11 1 6 -10 -3 -20 -1 -23
4 -4 6 -11 10 -16 10 -6 0 -3 -7 5 -16z"/>
<path d="M2746 2673 c-6 -14 -5 -15 5 -6 7 7 10 15 7 18 -3 3 -9 -2 -12 -12z"/>
<path d="M1931 2630 l-12 -55 32 -27 c24 -20 35 -24 41 -15 5 9 11 7 23 -8 15
-20 16 -19 13 5 -2 17 -10 26 -26 28 -26 4 -45 33 -36 56 8 21 24 21 24 0 0
-8 4 -12 10 -9 14 9 -11 44 -27 38 -7 -3 -17 5 -22 18 -7 21 -10 17 -20 -31z"/>
<path d="M2645 2668 c-16 -6 -38 -14 -47 -19 -10 -5 -25 -9 -33 -9 -8 0 -15
-4 -15 -10 0 -15 23 -12 84 11 79 29 89 53 11 27z"/>
<path d="M3990 2665 c-31 -9 -37 -13 -20 -14 14 0 39 6 55 14 38 17 24 17 -35
0z"/>
<path d="M1735 2613 c-20 -66 -31 -204 -21 -256 9 -47 74 -92 120 -83 36 7 96
37 96 48 0 11 -2 10 -40 -9 -32 -15 -35 -15 -76 6 -78 42 -88 60 -86 154 1 45
9 107 17 137 19 73 11 76 -10 3z"/>
<path d="M2430 2660 c0 -5 5 -10 10 -10 6 0 10 5 10 10 0 6 -4 10 -10 10 -5 0
-10 -4 -10 -10z"/>
<path d="M1410 2579 c-8 -46 -11 -128 -7 -223 7 -219 50 -368 159 -551 109
-183 318 -396 410 -419 15 -3 44 -22 63 -42 45 -45 174 -106 296 -140 77 -21
123 -27 258 -31 137 -5 163 -3 159 8 -3 8 -11 38 -18 66 -15 57 -37 75 -25 21
14 -67 20 -63 -102 -63 -62 -1 -113 3 -113 8 0 4 -13 6 -30 3 -16 -2 -30 -1
-30 3 0 4 -6 8 -12 9 -31 2 -84 15 -99 23 -9 4 -29 11 -45 13 -34 6 -192 75
-247 108 -130 77 -311 241 -383 348 -53 77 -120 202 -147 275 -68 180 -101
430 -76 578 6 38 9 71 6 73 -3 3 -10 -27 -17 -67z"/>
<path d="M4050 2641 c0 -5 -13 -14 -30 -20 -40 -14 -38 -22 2 -10 18 5 34 9
34 9 1 0 4 7 8 15 3 8 1 15 -4 15 -6 0 -10 -4 -10 -9z"/>
<path d="M2505 2631 c-3 -5 -1 -12 5 -16 5 -3 10 1 10 9 0 18 -6 21 -15 7z"/>
<path d="M2440 2619 c0 -15 15 -17 33 -4 16 11 15 13 -8 13 -14 0 -25 -4 -25
-9z"/>
<path d="M1772 2568 c-15 -77 -21 -151 -13 -170 3 -9 21 -28 39 -41 27 -20 39
-23 72 -17 45 8 64 20 33 20 -34 0 -114 50 -125 79 -7 18 -7 50 0 101 12 87 8
105 -6 28z"/>
<path d="M1000 2599 c-12 -8 -11 -9 6 -4 18 5 21 2 16 -20 -4 -23 -2 -25 36
-25 41 0 73 -22 52 -35 -8 -5 -8 -11 1 -21 16 -19 29 -8 29 26 0 22 4 28 15
24 8 -4 15 -1 15 5 0 6 7 11 15 11 17 0 20 16 5 25 -5 3 -10 1 -10 -4 0 -19
-20 -12 -29 11 -8 21 -8 21 -14 -3 -5 -17 -9 -20 -15 -11 -9 13 -64 32 -92 32
-8 0 -22 -5 -30 -11z"/>
<path d="M2468 2592 c-10 -2 -18 -10 -18 -18 0 -16 9 -18 29 -5 18 12 10 28
-11 23z"/>
<path d="M2613 2587 c-24 -5 -43 -14 -43 -19 0 -10 41 -1 85 18 36 15 17 16
-42 1z"/>
<path d="M1271 2574 c0 -11 3 -14 6 -6 3 7 2 16 -1 19 -3 4 -6 -2 -5 -13z"/>
<path d="M992 2560 c0 -14 2 -19 5 -12 2 6 2 18 0 25 -3 6 -5 1 -5 -13z"/>
<path d="M2481 2554 c-22 -23 -22 -24 -3 -24 11 0 25 7 32 15 11 13 15 13 21
3 7 -10 9 -9 9 3 0 27 -34 29 -59 3z"/>
<path d="M3830 2571 c0 -10 30 -24 37 -17 3 2 -5 9 -16 16 -12 6 -21 7 -21 1z"/>
<path d="M2670 2560 c-8 -5 -10 -10 -5 -10 6 0 17 5 25 10 8 5 11 10 5 10 -5
0 -17 -5 -25 -10z"/>
<path d="M1272 2530 c0 -14 2 -19 5 -12 2 6 2 18 0 25 -3 6 -5 1 -5 -13z"/>
<path d="M2620 2540 c-13 -8 -13 -10 2 -10 9 0 20 5 23 10 8 13 -5 13 -25 0z"/>
<path d="M3760 2542 c0 -4 46 -32 103 -62 69 -36 96 -46 83 -32 -10 12 -27 24
-37 27 -10 4 -44 22 -76 41 -58 35 -73 40 -73 26z"/>
<path d="M3890 2540 c8 -5 20 -10 25 -10 6 0 3 5 -5 10 -8 5 -19 10 -25 10 -5
0 -3 -5 5 -10z"/>
<path d="M1672 2410 l3 -125 56 -38 56 -38 56 14 c33 9 59 11 63 6 9 -15 54
-10 54 6 0 8 3 14 8 13 14 -3 62 14 62 22 0 16 -22 23 -30 10 -4 -7 -13 -9
-20 -5 -9 6 -11 4 -5 -5 6 -10 -2 -11 -39 -6 -29 5 -46 3 -46 -3 0 -5 -16 -15
-36 -20 -34 -9 -41 -7 -95 29 -31 22 -60 48 -63 57 -3 10 -8 58 -11 108 -9
132 -16 117 -13 -25z"/>
<path d="M3740 2494 c0 -8 5 -12 10 -9 6 4 8 11 5 16 -9 14 -15 11 -15 -7z"/>
<path d="M1271 2484 c0 -11 3 -14 6 -6 3 7 2 16 -1 19 -3 4 -6 -2 -5 -13z"/>
<path d="M1806 2493 c-3 -4 -6 -18 -6 -32 0 -20 10 -31 40 -48 21 -13 52 -23
67 -23 46 1 198 44 201 58 1 6 -5 12 -13 12 -8 0 -15 -5 -15 -11 0 -6 -9 -9
-20 -6 -12 3 -18 1 -14 -5 5 -7 -2 -9 -20 -6 -14 3 -26 2 -26 -2 0 -4 -9 -10
-20 -13 -11 -3 -20 -1 -20 4 0 5 -3 8 -7 7 -13 -4 -76 24 -109 48 -17 13 -34
20 -38 17z"/>
<path d="M3691 2484 c0 -11 3 -14 6 -6 3 7 2 16 -1 19 -3 4 -6 -2 -5 -13z"/>
<path d="M1018 2473 c-4 -13 1 -19 14 -19 11 0 17 6 16 15 -4 22 -25 24 -30 4z"/>
<path d="M1070 2460 c0 -16 4 -30 8 -30 4 0 9 14 10 30 1 17 -2 30 -8 30 -5 0
-10 -13 -10 -30z"/>
<path d="M3746 2455 c-3 -9 0 -15 9 -15 16 0 20 16 6 24 -5 3 -11 -1 -15 -9z"/>
<path d="M3780 2451 c0 -14 11 -25 36 -36 43 -18 54 -19 54 -5 0 6 -5 10 -12
10 -6 0 -26 11 -45 26 -32 24 -33 24 -33 5z"/>
<path d="M4178 2463 c7 -3 16 -2 19 1 4 3 -2 6 -13 5 -11 0 -14 -3 -6 -6z"/>
<path d="M1269 2455 c-13 -52 7 -268 36 -382 94 -368 359 -704 691 -875 106
-55 234 -101 338 -122 117 -25 133 -17 21 9 -281 65 -492 180 -680 370 -196
197 -338 470 -375 720 -7 44 -14 89 -16 99 -2 11 -4 57 -6 103 -2 72 -5 97 -9
78z"/>
<path d="M3700 2445 c0 -8 4 -15 8 -15 5 0 9 7 9 15 0 8 -4 15 -9 15 -4 0 -8
-7 -8 -15z"/>
<path d="M4093 2446 c-42 -11 -68 -27 -42 -25 19 1 118 38 99 37 -8 0 -34 -6
-57 -12z"/>
<path d="M2095 2410 c-3 -5 -2 -10 4 -10 5 0 13 5 16 10 3 6 2 10 -4 10 -5 0
-13 -4 -16 -10z"/>
<path d="M3756 2404 c-19 -14 -19 -14 3 -14 32 0 24 -34 -9 -38 -20 -2 -34
-20 -73 -95 -26 -51 -57 -123 -68 -162 -25 -81 -77 -190 -123 -255 -47 -67
-52 -80 -12 -36 44 48 115 186 149 288 26 76 101 226 121 240 6 4 21 8 34 8
25 0 27 12 9 52 -11 25 -14 26 -31 12z"/>
<path d="M860 2393 c0 -12 5 -25 10 -28 13 -8 13 15 0 35 -8 12 -10 11 -10 -7z"/>
<path d="M3697 2393 c-34 -39 -100 -170 -119 -237 -11 -39 -36 -107 -57 -152
-37 -78 -130 -226 -151 -239 -5 -3 -15 -16 -21 -28 l-12 -22 23 20 c79 69 197
276 228 400 21 85 99 236 124 243 10 2 18 11 18 18 0 19 -14 18 -33 -3z"/>
<path d="M2100 2379 c0 -5 -4 -7 -10 -4 -5 3 -10 2 -10 -3 0 -5 -15 -14 -32
-20 -31 -10 -30 -11 15 -5 39 4 47 3 47 -11 0 -9 -8 -17 -17 -17 -10 -1 -5 -4
11 -8 25 -5 29 -11 30 -39 1 -22 -4 -34 -16 -38 -27 -8 -21 -22 7 -16 19 3 25
0 25 -13 0 -11 -5 -15 -16 -11 -8 3 -12 2 -9 -4 3 -6 -3 -10 -15 -10 -12 0
-25 9 -30 23 -8 19 -9 17 -7 -13 1 -26 6 -34 17 -31 8 2 27 6 43 9 33 5 37
-15 5 -28 -23 -9 -20 -11 17 -14 11 0 20 -8 20 -18 0 -9 4 -20 8 -24 4 -5 -2
-16 -15 -26 l-23 -18 28 0 c30 0 38 -26 10 -33 -14 -4 -12 -5 5 -6 27 -1 29
-21 2 -28 -11 -3 -20 -10 -20 -15 0 -6 11 -7 25 -4 20 5 25 3 25 -13 0 -12 -9
-21 -26 -25 -15 -4 -27 -6 -29 -4 -1 2 -7 12 -13 23 -9 18 -11 16 -10 -13 1
-22 5 -31 14 -28 7 3 29 8 50 12 35 6 37 5 31 -15 -6 -25 10 -81 24 -81 5 0 9
-7 9 -16 0 -8 4 -13 10 -9 6 4 6 15 0 31 -5 13 -12 35 -14 47 -2 12 -11 41
-20 65 -8 23 -15 46 -16 50 0 4 -7 32 -16 62 -9 30 -17 64 -19 75 -2 11 -10
41 -18 68 -8 26 -13 47 -11 47 2 0 -5 24 -15 53 -11 28 -22 64 -25 80 -6 26
-26 39 -26 16z"/>
<path d="M4185 2380 c-13 -5 -14 -9 -5 -9 8 0 24 4 35 9 13 5 14 9 5 9 -8 0
-24 -4 -35 -9z"/>
<path d="M1966 2334 c-5 -12 -2 -15 10 -10 8 3 18 6 20 6 2 0 4 5 4 10 0 16
-27 11 -34 -6z"/>
<path d="M3932 2313 l-133 -36 -46 -91 c-25 -50 -57 -120 -70 -156 -13 -36
-42 -98 -64 -138 -22 -41 -38 -76 -36 -78 7 -7 107 191 123 244 7 26 35 83 62
127 l48 80 115 33 c203 59 204 69 1 15z"/>
<path d="M3888 2333 c7 -3 16 -2 19 1 4 3 -2 6 -13 5 -11 0 -14 -3 -6 -6z"/>
<path d="M872 2310 c0 -14 2 -19 5 -12 2 6 2 18 0 25 -3 6 -5 1 -5 -13z"/>
<path d="M3848 2323 c7 -3 16 -2 19 1 4 3 -2 6 -13 5 -11 0 -14 -3 -6 -6z"/>
<path d="M3808 2313 c7 -3 16 -2 19 1 4 3 -2 6 -13 5 -11 0 -14 -3 -6 -6z"/>
<path d="M3765 2300 c-3 -6 1 -7 9 -4 18 7 21 14 7 14 -6 0 -13 -4 -16 -10z"/>
<path d="M2060 2270 c-13 -9 -13 -10 0 -9 8 1 26 5 40 9 l25 8 -25 1 c-14 0
-32 -4 -40 -9z"/>
<path d="M3726 2233 c-6 -14 -5 -15 5 -6 7 7 10 15 7 18 -3 3 -9 -2 -12 -12z"/>
<path d="M882 2215 c0 -16 2 -22 5 -12 2 9 2 23 0 30 -3 6 -5 -1 -5 -18z"/>
<path d="M1088 2172 c2 -16 10 -29 18 -29 15 0 18 15 8 41 -11 28 -31 18 -26
-12z"/>
<path d="M1040 2167 c0 -14 7 -28 16 -31 12 -5 15 0 12 21 -4 35 -28 43 -28
10z"/>
<path d="M880 2171 c0 -6 5 -13 10 -16 6 -3 10 1 10 9 0 9 -4 16 -10 16 -5 0
-10 -4 -10 -9z"/>
<path d="M3673 2123 c-12 -26 -24 -59 -28 -73 -12 -41 -74 -160 -122 -234 -54
-84 -50 -100 5 -19 50 74 93 159 126 251 14 41 31 83 37 94 6 11 9 22 6 24 -2
3 -13 -17 -24 -43z"/>
<path d="M2093 2107 c1 -21 7 -37 14 -37 20 0 21 14 2 44 l-18 29 2 -36z"/>
<path d="M930 2116 c0 -8 4 -17 9 -20 5 -4 7 3 4 14 -6 23 -13 26 -13 6z"/>
<path d="M898 2068 c4 -18 6 -50 6 -70 0 -24 3 -33 9 -25 5 7 6 -2 3 -23 -3
-19 -3 -29 0 -21 4 8 21 -27 39 -80 18 -52 40 -112 49 -133 9 -23 12 -42 7
-45 -11 -7 30 -91 43 -88 6 1 18 -13 29 -31 16 -28 17 -31 3 -26 -14 5 -13 0
5 -30 12 -20 30 -41 40 -47 11 -5 19 -14 19 -20 0 -6 -5 -7 -12 -3 -7 4 -8 3
-4 -4 4 -6 12 -9 19 -7 7 3 32 -26 57 -63 25 -37 104 -126 177 -199 72 -73
127 -133 120 -133 -6 0 4 -13 23 -30 34 -28 90 -41 90 -20 0 14 27 1 34 -16 4
-10 1 -13 -7 -9 -6 4 -1 -3 12 -15 13 -11 30 -19 38 -16 7 3 12 0 10 -7 -1 -7
4 -11 11 -10 6 2 12 -1 12 -7 0 -5 10 -14 21 -21 15 -8 19 -8 15 0 -10 16 7
14 30 -4 19 -15 19 -15 -1 -9 -12 3 -9 -1 8 -11 15 -9 33 -13 39 -9 7 4 8 3 4
-4 -4 -7 7 -13 29 -18 19 -3 35 -10 35 -15 0 -5 9 -9 20 -9 12 0 34 -7 50 -15
101 -52 331 -103 588 -130 34 -4 65 -11 68 -16 3 -5 22 -9 42 -8 33 1 34 2 12
9 -30 10 -31 10 50 15 92 7 213 26 226 37 6 4 19 6 28 2 9 -3 16 -1 16 5 0 6
3 10 8 10 4 -1 9 0 12 1 3 1 14 3 25 5 100 14 355 126 493 217 15 10 37 23 50
29 12 7 22 18 22 26 0 7 5 13 12 13 25 0 178 129 178 151 0 5 6 9 13 9 8 0 29
17 49 38 34 36 39 62 14 62 -14 0 -54 -48 -46 -54 3 -3 -13 -17 -35 -32 -64
-43 -155 -125 -150 -134 3 -5 0 -12 -6 -16 -8 -4 -9 -3 -5 4 9 15 1 15 -25 1
-11 -5 -16 -15 -13 -21 4 -7 3 -8 -4 -4 -6 4 -35 -8 -64 -27 -77 -49 -286
-152 -328 -161 -3 -1 -18 -7 -35 -13 -16 -7 -77 -23 -135 -37 -260 -63 -536
-63 -800 0 -247 58 -395 128 -652 306 -20 14 -43 31 -51 39 -8 8 -47 43 -88
79 -40 36 -86 78 -102 94 -16 15 -31 26 -34 22 -3 -3 9 -19 26 -37 18 -17 29
-34 26 -37 -3 -3 -21 11 -40 31 -19 20 -33 37 -30 37 3 0 -10 14 -30 31 -19
17 -35 37 -35 45 0 8 -5 14 -10 14 -6 0 -14 10 -19 23 -5 13 -21 37 -35 54
-24 29 -25 43 -3 43 6 0 8 -2 5 -5 -3 -3 8 -20 24 -37 16 -17 27 -37 24 -45
-3 -8 -2 -12 3 -8 5 3 12 -8 16 -25 4 -16 11 -30 16 -30 6 0 7 5 3 12 -4 7 -3
8 4 4 21 -13 13 3 -36 77 -27 40 -66 103 -87 140 -20 37 -39 66 -42 63 -6 -5
34 -83 47 -91 15 -10 12 -35 -5 -35 -8 0 -15 3 -14 8 2 15 -14 52 -23 52 -5 0
-7 4 -3 9 3 6 0 13 -7 18 -22 14 -50 85 -39 96 6 6 11 19 11 30 0 14 -5 17
-20 12 -15 -5 -18 -3 -14 9 8 20 -16 63 -26 47 -8 -14 -46 94 -42 121 2 9 -2
19 -7 22 -6 4 -8 13 -4 21 3 8 0 15 -5 15 -6 0 -16 27 -23 60 -6 33 -15 60
-19 60 -5 0 -5 -15 -2 -32z m152 -348 c0 -5 -4 -10 -10 -10 -5 0 -10 5 -10 10
0 6 5 10 10 10 6 0 10 -4 10 -10z m70 -231 c0 -6 -4 -7 -10 -4 -5 3 -10 11
-10 16 0 6 5 7 10 4 6 -3 10 -11 10 -16z m261 -296 c13 -16 12 -17 -3 -4 -17
13 -22 21 -14 21 2 0 10 -8 17 -17z m170 -170 c13 -16 12 -17 -3 -4 -17 13
-22 21 -14 21 2 0 10 -8 17 -17z m49 -18 c0 -8 -4 -15 -9 -15 -13 0 -22 16
-14 24 11 11 23 6 23 -9z"/>
<path d="M936 2058 c-8 -33 -7 -50 3 -44 5 4 12 0 15 -6 3 -7 4 4 2 25 -4 46
-11 55 -20 25z"/>
<path d="M2117 2014 c-6 -35 -4 -38 24 -29 12 4 17 10 12 14 -5 3 -14 14 -20
25 -9 17 -11 16 -16 -10z"/>
<path d="M1895 2020 c-3 -5 -1 -10 4 -10 6 0 11 5 11 10 0 6 -2 10 -4 10 -3 0
-8 -4 -11 -10z"/>
<path d="M2043 2014 c-19 -8 -33 -10 -33 -4 0 5 -5 10 -11 10 -5 0 -8 -4 -5
-9 4 -5 -3 -7 -14 -4 -11 3 -26 0 -33 -6 -8 -6 -17 -8 -20 -4 -4 3 -7 1 -7 -6
0 -6 -6 -11 -12 -10 -7 1 -20 0 -28 -4 -8 -3 -31 -10 -50 -16 -27 -8 -42 -23
-62 -60 l-28 -48 41 -59 c50 -71 99 -124 115 -124 7 0 34 -25 61 -55 26 -31
76 -73 110 -95 55 -35 65 -39 83 -28 11 7 20 16 20 21 0 4 -4 6 -9 3 -19 -12
-40 21 -42 66 -3 57 -3 56 -59 95 -25 17 -64 51 -87 75 l-41 43 27 53 c23 46
29 51 40 39 10 -13 8 -23 -9 -57 l-21 -42 23 -25 c13 -14 44 -43 71 -65 l47
-40 0 26 c0 15 -6 26 -14 26 -7 0 -30 15 -51 34 -36 34 -37 34 -20 60 10 14
24 26 33 26 12 0 13 3 4 12 -17 17 -15 45 4 52 29 11 38 6 18 -10 -19 -15 -18
-15 4 -11 12 3 22 1 22 -4 0 -5 5 -9 11 -9 5 0 7 5 3 11 -4 7 -7 24 -6 39 1
29 -14 34 -39 14 -8 -6 -35 -9 -61 -8 -27 2 -48 -1 -48 -6 0 -6 -9 -10 -19
-10 -11 0 -28 -15 -40 -36 l-21 -36 35 -41 c20 -23 33 -47 31 -54 -4 -10 27
-40 142 -134 7 -6 11 -13 8 -16 -14 -14 -182 129 -172 146 6 9 -61 75 -84 83
-9 3 -3 19 21 55 34 51 72 73 128 73 19 0 26 10 22 33 -1 9 50 30 57 23 3 -3
-3 -8 -12 -12 -22 -9 -20 -24 4 -24 13 0 20 7 20 19 0 11 3 26 6 35 7 20 -9
20 -53 0z m-66 -49 c0 -13 -18 -19 -54 -18 -7 1 -13 -3 -13 -7 0 -5 -10 -10
-22 -12 -14 -2 -33 -21 -51 -50 l-29 -47 31 -44 c37 -54 156 -166 223 -209 27
-18 45 -34 38 -36 -32 -11 -206 136 -275 234 -50 69 -50 71 -11 132 20 32 34
42 78 55 68 20 85 20 85 2z m33 5 c0 -5 -5 -10 -11 -10 -5 0 -7 5 -4 10 3 6 8
10 11 10 2 0 4 -4 4 -10z"/>
<path d="M1820 2005 c-19 -7 -46 -16 -60 -19 -15 -3 -38 -25 -59 -55 l-33 -50
27 -48 c154 -265 468 -468 785 -505 55 -7 100 -15 100 -19 0 -10 -22 -16 -45
-13 -48 6 -92 13 -120 19 -16 3 -39 8 -50 10 -70 12 -271 101 -350 154 -69 47
-71 46 -21 -3 100 -97 317 -178 537 -201 71 -8 87 0 70 32 -12 23 -24 54 -27
73 -2 8 -8 33 -14 55 -6 22 -16 57 -21 79 -12 48 -27 76 -40 76 -6 0 -8 -4 -4
-9 3 -5 1 -12 -4 -15 -5 -4 -6 -17 -1 -34 41 -128 43 -135 25 -148 -15 -11
-13 -13 17 -16 18 -2 32 -7 31 -13 -3 -12 -83 -20 -83 -8 0 5 -19 10 -42 11
-66 3 -105 14 -218 60 -103 42 -270 145 -270 168 0 13 -49 59 -72 67 -19 7
-168 196 -168 213 0 7 15 33 33 60 23 34 43 51 72 61 22 7 44 18 49 23 14 14
-1 12 -44 -5z"/>
<path d="M963 1946 c1 -24 5 -42 9 -40 3 2 9 -2 11 -8 3 -7 6 1 6 19 1 17 -4
35 -10 38 -6 4 -8 13 -5 21 3 8 1 14 -4 14 -5 0 -8 -20 -7 -44z"/>
<path d="M1080 1950 c0 -10 10 -24 22 -31 18 -10 20 -9 15 6 -4 9 -7 23 -7 31
0 8 -7 14 -15 14 -8 0 -15 -9 -15 -20z"/>
<path d="M3775 1870 c-16 -33 -26 -62 -23 -65 3 -3 17 22 32 56 36 79 28 87
-9 9z"/>
<path d="M3726 1895 c4 -8 1 -22 -6 -30 -22 -26 -5 -26 19 -1 23 25 21 46 -4
46 -9 0 -12 -6 -9 -15z"/>
<path d="M2195 1871 c-3 -5 -1 -12 5 -16 5 -3 10 1 10 9 0 18 -6 21 -15 7z"/>
<path d="M2154 1859 c-3 -6 -16 -9 -29 -7 -17 4 -28 -5 -50 -39 -15 -24 -26
-45 -24 -46 2 -1 14 -10 25 -20 21 -17 22 -17 20 0 -1 13 10 20 44 28 38 8
106 43 90 46 -44 7 -65 23 -54 41 3 4 1 8 -5 8 -5 0 -13 -5 -17 -11z"/>
<path d="M3274 1854 c-18 -14 -18 -15 4 -4 12 6 22 13 22 15 0 8 -5 6 -26 -11z"/>
<path d="M3200 1810 c-9 -6 -10 -10 -3 -10 6 0 15 5 18 10 8 12 4 12 -15 0z"/>
<path d="M3120 1770 c-19 -11 -42 -19 -51 -20 -14 0 -16 -6 -8 -39 13 -57 27
-91 39 -91 6 0 8 10 4 25 -7 29 3 32 23 8 10 -13 10 -9 -2 15 -8 17 -22 32
-30 32 -8 0 -15 9 -15 19 0 26 17 36 23 14 4 -14 5 -13 6 5 0 12 5 22 9 22 5
0 17 7 28 15 26 20 16 18 -26 -5z"/>
<path d="M2238 1773 c7 -3 16 -2 19 1 4 3 -2 6 -13 5 -11 0 -14 -3 -6 -6z"/>
<path d="M3658 1749 c-9 -5 -33 -33 -54 -62 -51 -70 -175 -198 -249 -256 -71
-56 -155 -106 -243 -144 -65 -28 -84 -32 -80 -19 1 4 -4 18 -11 31 -7 13 -14
41 -15 62 -1 44 -6 48 -23 20 -10 -15 -9 -31 4 -76 9 -31 23 -59 30 -62 8 -3
44 7 81 23 191 81 362 209 488 367 31 39 66 80 77 89 23 21 20 41 -5 27z"/>
<path d="M3530 1719 c0 -5 -4 -7 -10 -4 -5 3 -26 -14 -47 -37 -53 -60 -119
-122 -183 -172 -59 -46 -162 -108 -176 -105 -25 4 -44 -3 -44 -16 0 -24 20
-18 104 30 107 61 175 114 266 207 42 43 82 78 88 78 7 0 12 7 12 15 0 8 -2
15 -5 15 -3 0 -5 -5 -5 -11z"/>
<path d="M3458 1597 c-111 -112 -211 -188 -315 -241 -67 -33 -80 -33 -88 4 -6
29 -19 38 -29 22 -7 -12 13 -82 24 -82 4 0 39 14 76 31 108 48 225 132 324
231 84 85 138 148 127 148 -3 0 -56 -51 -119 -113z"/>
<path d="M3150 1683 c0 -7 4 -13 9 -13 5 0 13 6 19 13 8 10 6 13 -9 13 -10 0
-19 -6 -19 -13z"/>
<path d="M3235 1677 c-59 -32 -137 -88 -131 -94 3 -3 29 11 58 32 29 21 59 38
68 39 8 1 26 11 40 24 30 27 17 27 -35 -1z"/>
<path d="M3384 1692 c-12 -2 -41 -21 -65 -44 -24 -22 -79 -65 -121 -95 -88
-62 -101 -78 -30 -37 57 33 115 76 164 122 20 19 41 32 46 28 5 -3 15 1 22 9
15 18 12 22 -16 17z"/>
<path d="M2828 1655 c3 -17 0 -25 -9 -25 -8 -1 -27 -7 -44 -15 -29 -14 -24
-14 38 1 21 5 27 3 27 -11 0 -9 -4 -13 -10 -10 -5 3 -10 2 -10 -4 0 -5 -15
-13 -32 -17 -18 -4 -27 -9 -20 -11 7 -3 26 0 43 6 17 6 35 8 41 5 14 -9 -10
-32 -43 -39 -16 -4 -32 -11 -36 -17 -4 -8 0 -9 13 -4 10 4 34 10 52 13 27 5
31 3 26 -11 -3 -9 -11 -16 -18 -16 -6 -1 -24 -7 -41 -16 -27 -13 -27 -14 -5
-10 14 3 37 8 53 11 21 6 27 4 27 -9 0 -9 -15 -19 -41 -26 -23 -6 -39 -14 -36
-16 3 -3 22 -1 43 5 43 12 47 10 38 -12 -3 -9 -21 -19 -40 -23 -19 -3 -34 -10
-34 -14 0 -5 15 -4 32 1 34 9 83 11 60 2 -6 -2 -10 -8 -7 -13 3 -4 -7 -11 -23
-15 -15 -3 -37 -13 -50 -21 -19 -12 -21 -18 -11 -30 9 -11 9 -17 -1 -29 -10
-12 -10 -15 4 -15 19 0 22 -30 4 -31 -7 0 -2 -5 12 -10 23 -10 24 -11 8 -23
-23 -17 -23 -30 -2 -22 9 4 22 2 29 -4 9 -8 14 -6 19 5 3 8 12 15 21 15 8 0
15 5 15 10 0 6 -6 10 -12 9 -36 -4 -48 2 -48 26 0 14 7 28 16 32 13 5 13 7 2
14 -7 5 -20 6 -28 4 -10 -3 -15 3 -16 20 -2 25 10 33 21 15 10 -16 28 -12 21
5 -9 24 20 17 31 -7 6 -13 16 -42 22 -65 9 -32 17 -43 31 -43 11 0 20 -5 20
-11 0 -5 4 -7 10 -4 6 4 6 13 1 23 -13 25 -41 126 -41 147 0 18 -1 18 -16 -1
-8 -10 -13 -14 -10 -8 3 6 -1 29 -8 50 -16 45 -50 159 -66 222 -11 45 -31 60
-22 17z"/>
<path d="M3339 1604 c-35 -31 -95 -77 -132 -101 -38 -25 -66 -47 -64 -50 6 -5
96 51 148 93 72 58 132 114 122 114 -5 0 -38 -25 -74 -56z"/>
<path d="M4139 1613 c-13 -21 -24 -44 -26 -52 -1 -8 -6 -17 -11 -20 -5 -3 -15
-17 -23 -31 -13 -25 -15 -31 -18 -50 0 -5 -7 -10 -15 -10 -8 0 -16 -6 -19 -13
-2 -6 -25 -37 -49 -67 -44 -54 -48 -60 -48 -79 0 -5 -10 -12 -22 -15 -22 -7
-22 -8 -3 -15 21 -8 52 18 83 71 9 16 20 28 25 28 4 0 5 5 2 10 -3 6 -1 10 5
10 6 0 15 10 21 23 19 42 44 83 71 118 28 36 64 117 55 125 -2 3 -15 -12 -28
-33z"/>
<path d="M3205 1609 c-53 -40 -67 -56 -30 -35 41 24 92 66 80 66 -5 0 -28 -14
-50 -31z"/>
<path d="M1384 1622 c4 -3 14 -7 22 -8 9 -1 13 0 10 4 -4 3 -14 7 -22 8 -9 1
-13 0 -10 -4z"/>
<path d="M2437 1561 c-3 -11 1 -22 8 -25 8 -3 15 5 18 20 5 29 -18 34 -26 5z"/>
<path d="M3699 1563 c-13 -16 -12 -17 4 -4 9 7 17 15 17 17 0 8 -8 3 -21 -13z"/>
<path d="M1056 1557 c3 -10 9 -15 12 -12 3 3 0 11 -7 18 -10 9 -11 8 -5 -6z"/>
<path d="M2340 1550 c-13 -9 -13 -10 0 -9 8 0 24 4 35 9 l20 9 -20 0 c-11 0
-27 -4 -35 -9z"/>
<path d="M2263 1537 c-29 -5 -53 -14 -53 -18 0 -5 3 -9 6 -9 15 0 90 24 99 32
5 4 7 7 5 7 -3 -1 -29 -6 -57 -12z"/>
<path d="M2388 1518 c-2 -5 -23 -10 -46 -11 -23 -1 -42 -5 -42 -9 0 -4 -21
-10 -47 -14 -27 -4 -57 -10 -68 -14 -19 -8 -19 -8 5 -18 101 -40 133 -51 194
-67 57 -14 73 -14 93 -4 27 15 33 46 6 33 -46 -20 -162 2 -183 36 -4 7 -13 9
-20 5 -8 -5 -11 -3 -8 6 2 7 36 21 74 31 84 22 85 22 78 3 -4 -8 -10 -12 -15
-9 -5 3 -9 1 -9 -5 0 -6 -16 -13 -36 -17 -44 -8 -35 -16 36 -36 l56 -15 -4 33
c-3 21 0 34 7 34 6 0 11 -9 11 -20 0 -11 5 -20 10 -20 13 0 13 27 0 35 -6 4
-8 11 -5 16 4 5 -1 11 -9 14 -9 3 -24 8 -33 12 -31 11 -42 11 -45 1z"/>
<path d="M1522 1434 c10 -10 20 -16 22 -13 3 3 -5 11 -17 18 -21 13 -21 12 -5
-5z"/>
<path d="M1272 1351 c-9 -5 -7 -12 7 -25 22 -20 35 -9 17 16 -7 9 -17 13 -24
9z"/>
<path d="M2745 1330 c-11 -5 -14 -9 -7 -9 7 -1 10 -6 6 -12 -12 -21 18 -118
42 -134 22 -14 22 -14 13 23 -6 20 -15 47 -21 59 -6 12 -11 36 -12 52 -1 17
-1 31 -1 30 0 0 -9 -4 -20 -9z"/>
<path d="M1656 1321 c-6 -9 7 -22 34 -35 8 -4 6 0 -5 9 -11 9 -19 21 -17 26 3
12 -5 12 -12 0z"/>
<path d="M2616 1285 c-3 -8 -1 -15 3 -15 5 0 11 7 15 15 3 8 1 15 -3 15 -5 0
-11 -7 -15 -15z"/>
<path d="M2885 1261 c-3 -5 -1 -12 5 -16 5 -3 10 1 10 9 0 18 -6 21 -15 7z"/>
<path d="M2498 1053 c12 -2 30 -2 40 0 9 3 -1 5 -23 4 -22 0 -30 -2 -17 -4z"/>
<path d="M2156 1035 c3 -8 16 -17 27 -21 12 -4 25 -12 29 -18 6 -8 8 -8 8 1 0
6 -15 20 -34 31 -24 14 -33 16 -30 7z"/>
<path d="M2670 940 c-8 -5 -11 -12 -7 -17 5 -4 12 -1 16 6 7 11 10 11 14 0 3
-9 6 -10 6 -2 1 17 -13 23 -29 13z"/>
<path d="M2545 630 c-3 -5 1 -10 10 -10 9 0 13 5 10 10 -3 6 -8 10 -10 10 -2
0 -7 -4 -10 -10z"/>
</g>
</svg>
